<?xml version="1.0" encoding="UTF-8" standalone="no"?>
<!-- Generator: Adobe Illustrator 27.7.0, SVG Export Plug-In . SVG Version: 6.00 Build 0)  -->

<svg
   version="1.1"
   id="REGIO"
   x="0px"
   y="0px"
   viewBox="0 0 217 93.33"
   xml:space="preserve"
   sodipodi:docname="logo-splash.svg"
   width="217"
   height="93.330002"
   inkscape:version="1.3.2 (091e20ef0f, 2023-11-25, custom)"
   xmlns:inkscape="http://www.inkscape.org/namespaces/inkscape"
   xmlns:sodipodi="http://sodipodi.sourceforge.net/DTD/sodipodi-0.dtd"
   xmlns="http://www.w3.org/2000/svg"
   xmlns:svg="http://www.w3.org/2000/svg"><defs
   id="defs34" /><sodipodi:namedview
   id="namedview34"
   pagecolor="#ffffff"
   bordercolor="#666666"
   borderopacity="1.0"
   inkscape:showpageshadow="2"
   inkscape:pageopacity="0.0"
   inkscape:pagecheckerboard="0"
   inkscape:deskcolor="#d1d1d1"
   inkscape:zoom="5.6789862"
   inkscape:cx="37.154519"
   inkscape:cy="154.6931"
   inkscape:window-width="3840"
   inkscape:window-height="2064"
   inkscape:window-x="2560"
   inkscape:window-y="0"
   inkscape:window-maximized="1"
   inkscape:current-layer="REGIO" />
<style
   type="text/css"
   id="style1">
	.st0{fill:#49535B;}
	.st1{fill:#127BAC;}
	.st2{fill:#79838C;}
</style>
<g
   id="g21"
   transform="translate(33,0.01)">
	<path
   class="st0"
   d="M 0.03,90.22 V 80.7 c 0,-0.13 0.08,-0.2 0.21,-0.2 h 2.37 c 3.42,0 5.05,2.14 5.05,4.96 0,2.82 -1.63,4.96 -5.05,4.96 H 0.24 c -0.13,0 -0.21,-0.07 -0.21,-0.2 z m 2.55,-0.99 c 2.57,0 3.73,-1.4 3.73,-3.77 0,-2.37 -1.16,-3.79 -3.73,-3.79 H 1.36 v 7.56 z"
   id="path1" />
	<path
   class="st0"
   d="m 9.63,81.07 c 0,-0.43 0.34,-0.77 0.77,-0.77 0.43,0 0.75,0.34 0.75,0.77 0,0.42 -0.33,0.77 -0.75,0.77 C 9.97,81.83 9.63,81.49 9.63,81.07 Z m 0.13,2.61 c 0,-0.13 0.06,-0.2 0.18,-0.2 h 0.89 c 0.13,0 0.2,0.07 0.2,0.2 v 6.55 c 0,0.13 -0.07,0.2 -0.2,0.2 H 9.94 c -0.13,0 -0.18,-0.07 -0.18,-0.2 z"
   id="path2" />
	<path
   class="st0"
   d="m 13.98,92.63 c -0.13,-0.08 -0.16,-0.21 -0.1,-0.33 l 0.27,-0.5 c 0.06,-0.11 0.17,-0.14 0.28,-0.09 0.59,0.37 1.28,0.54 1.96,0.54 1.25,0 2.44,-0.55 2.44,-2.18 v -1.06 c -0.5,0.81 -1.33,1.3 -2.5,1.3 -1.98,0 -3.36,-1.45 -3.36,-3.51 0,-2.04 1.38,-3.5 3.34,-3.5 1.18,0 2.03,0.5 2.52,1.33 l 0.01,-0.96 c 0,-0.13 0.07,-0.2 0.2,-0.2 h 0.82 c 0.13,0 0.18,0.07 0.18,0.2 v 6.45 c 0,2.31 -1.8,3.2 -3.59,3.2 -0.98,0.01 -1.89,-0.28 -2.47,-0.69 z m 2.55,-3.47 c 1.33,0 2.27,-0.89 2.27,-2.32 0,-1.45 -0.94,-2.37 -2.27,-2.37 -1.32,0 -2.31,0.92 -2.31,2.34 0,1.44 0.99,2.35 2.31,2.35 z"
   id="path3" />
	<path
   class="st0"
   d="m 22.25,81.07 c 0,-0.43 0.34,-0.77 0.77,-0.77 0.43,0 0.75,0.34 0.75,0.77 0,0.42 -0.33,0.77 -0.75,0.77 -0.43,-0.01 -0.77,-0.35 -0.77,-0.77 z m 0.13,2.61 c 0,-0.13 0.06,-0.2 0.18,-0.2 h 0.89 c 0.13,0 0.2,0.07 0.2,0.2 v 6.55 c 0,0.13 -0.07,0.2 -0.2,0.2 h -0.89 c -0.13,0 -0.18,-0.07 -0.18,-0.2 z"
   id="path4" />
	<path
   class="st0"
   d="M 26.49,88.86 V 84.51 H 25.6 c -0.13,0 -0.21,-0.08 -0.21,-0.21 v -0.62 c 0,-0.13 0.08,-0.2 0.21,-0.2 h 0.89 v -1.64 c 0,-0.13 0.07,-0.2 0.2,-0.2 h 0.89 c 0.13,0 0.18,0.07 0.18,0.2 v 1.64 h 1.16 c 0.13,0 0.2,0.07 0.2,0.2 v 0.62 c 0,0.13 -0.07,0.21 -0.2,0.21 h -1.16 v 4.18 c 0,0.51 0.23,0.71 0.64,0.71 0.11,0 0.3,-0.01 0.44,-0.03 0.2,-0.01 0.27,0.06 0.27,0.2 v 0.6 c 0,0.27 -0.58,0.34 -0.98,0.34 -0.99,0 -1.64,-0.5 -1.64,-1.65 z"
   id="path5" />
	<path
   class="st0"
   d="m 30.57,86.95 c 0,-2.07 1.39,-3.64 3.39,-3.64 1.19,0 2.07,0.55 2.57,1.43 l 0.03,-1.06 c 0,-0.13 0.06,-0.2 0.18,-0.2 h 0.82 c 0.13,0 0.2,0.07 0.2,0.2 v 6.55 c 0,0.13 -0.07,0.2 -0.2,0.2 h -0.82 c -0.13,0 -0.18,-0.07 -0.18,-0.2 l -0.03,-1.04 c -0.51,0.87 -1.38,1.4 -2.57,1.4 -2,0 -3.39,-1.56 -3.39,-3.64 z m 3.62,2.47 c 1.36,0 2.31,-0.98 2.31,-2.45 0,-1.47 -0.95,-2.48 -2.31,-2.48 -1.38,0 -2.37,1.01 -2.37,2.47 0,1.46 0.99,2.46 2.37,2.46 z"
   id="path6" />
	<path
   class="st0"
   d="m 40.06,90.22 v -9.74 c 0,-0.13 0.07,-0.2 0.2,-0.2 h 0.89 c 0.13,0 0.2,0.07 0.2,0.2 v 9.74 c 0,0.13 -0.07,0.2 -0.2,0.2 h -0.89 c -0.13,0 -0.2,-0.07 -0.2,-0.2 z"
   id="path7" />
	<path
   class="st0"
   d="m 47.36,90.22 v -5.71 h -0.82 c -0.13,0 -0.21,-0.08 -0.21,-0.21 v -0.62 c 0,-0.13 0.08,-0.2 0.21,-0.2 h 0.82 v -1.43 c 0,-1.32 0.69,-1.98 1.97,-1.98 0.3,0 0.55,0.03 0.79,0.14 0.08,0.04 0.13,0.08 0.13,0.18 v 0.78 c 0,0.1 -0.08,0.11 -0.18,0.1 -0.18,-0.03 -0.35,-0.04 -0.5,-0.04 -0.77,0 -0.92,0.45 -0.92,1.05 v 1.2 h 1.39 c 0.13,0 0.21,0.07 0.21,0.2 v 0.62 c 0,0.13 -0.08,0.21 -0.21,0.21 h -1.39 v 5.71 c 0,0.13 -0.07,0.2 -0.2,0.2 h -0.89 c -0.13,0 -0.2,-0.07 -0.2,-0.2 z"
   id="path8" />
	<path
   class="st0"
   d="m 51.99,87.74 v -4.07 c 0,-0.13 0.07,-0.2 0.2,-0.2 h 0.89 c 0.13,0 0.18,0.07 0.18,0.2 v 3.88 c 0,1.16 0.6,1.84 1.66,1.84 1.06,0 1.84,-0.68 1.84,-1.84 v -3.88 c 0,-0.13 0.06,-0.2 0.18,-0.2 h 0.89 c 0.13,0 0.2,0.07 0.2,0.2 v 6.55 c 0,0.13 -0.07,0.2 -0.2,0.2 H 57 c -0.14,0 -0.18,-0.06 -0.2,-0.21 l -0.04,-0.88 c -0.4,0.71 -1.13,1.26 -2.25,1.26 -1.49,0 -2.52,-1 -2.52,-2.85 z m 1.7,-7.31 c 0.38,0 0.71,0.31 0.71,0.7 0,0.4 -0.33,0.71 -0.71,0.71 -0.38,0 -0.71,-0.31 -0.71,-0.71 0,-0.39 0.32,-0.7 0.71,-0.7 z m 2.72,0 c 0.38,0 0.71,0.31 0.71,0.7 0,0.4 -0.33,0.71 -0.71,0.71 -0.38,0 -0.71,-0.31 -0.71,-0.71 0,-0.39 0.33,-0.7 0.71,-0.7 z"
   id="path9" />
	<path
   class="st0"
   d="m 60.34,90.22 v -6.55 c 0,-0.13 0.07,-0.2 0.2,-0.2 h 0.84 c 0.14,0 0.2,0.06 0.2,0.21 l 0.04,0.82 c 0.25,-0.68 0.72,-1.21 1.57,-1.21 0.3,0 0.51,0.06 0.64,0.14 0.09,0.07 0.11,0.13 0.11,0.26 v 0.71 c 0,0.16 -0.1,0.18 -0.26,0.14 -0.18,-0.04 -0.35,-0.07 -0.51,-0.07 -1.16,0 -1.56,0.98 -1.56,1.81 v 3.93 c 0,0.13 -0.06,0.2 -0.18,0.2 h -0.89 c -0.13,0.01 -0.2,-0.06 -0.2,-0.19 z"
   id="path10" />
	<path
   class="st0"
   d="M 68.87,90.22 V 80.7 c 0,-0.13 0.08,-0.2 0.21,-0.2 h 2.37 c 3.42,0 5.05,2.14 5.05,4.96 0,2.82 -1.63,4.96 -5.05,4.96 h -2.37 c -0.12,0 -0.21,-0.07 -0.21,-0.2 z m 2.56,-0.99 c 2.57,0 3.73,-1.4 3.73,-3.77 0,-2.37 -1.16,-3.79 -3.73,-3.79 h -1.22 v 7.56 z"
   id="path11" />
	<path
   class="st0"
   d="m 78.23,86.92 c 0,-2.04 1.43,-3.62 3.52,-3.62 2.07,0 3.27,1.57 3.27,3.29 0,0.57 -0.11,0.82 -0.58,0.82 h -4.96 c 0.16,1.25 1.05,2.13 2.58,2.13 0.77,0 1.35,-0.21 1.89,-0.6 0.08,-0.06 0.17,-0.06 0.23,0.01 l 0.31,0.44 c 0.1,0.11 0.06,0.2 -0.06,0.3 -0.61,0.59 -1.5,0.89 -2.48,0.89 -2.27,0.01 -3.72,-1.62 -3.72,-3.66 z m 5.66,-0.45 C 83.82,85.22 83,84.4 81.75,84.4 c -1.25,0 -2.13,0.78 -2.27,2.07 z"
   id="path12" />
	<path
   class="st0"
   d="m 86.9,87.74 v -4.07 c 0,-0.13 0.07,-0.2 0.2,-0.2 h 0.89 c 0.13,0 0.18,0.07 0.18,0.2 v 3.88 c 0,1.16 0.6,1.84 1.66,1.84 1.06,0 1.84,-0.68 1.84,-1.84 v -3.88 c 0,-0.13 0.06,-0.2 0.18,-0.2 h 0.89 c 0.13,0 0.2,0.07 0.2,0.2 v 6.55 c 0,0.13 -0.07,0.2 -0.2,0.2 H 91.9 c -0.14,0 -0.18,-0.06 -0.2,-0.21 l -0.04,-0.88 c -0.4,0.71 -1.13,1.26 -2.25,1.26 -1.48,0 -2.51,-1 -2.51,-2.85 z"
   id="path13" />
	<path
   class="st0"
   d="m 95.93,88.86 v -4.35 h -0.89 c -0.13,0 -0.21,-0.08 -0.21,-0.21 v -0.62 c 0,-0.13 0.08,-0.2 0.21,-0.2 h 0.89 v -1.64 c 0,-0.13 0.07,-0.2 0.2,-0.2 h 0.89 c 0.13,0 0.18,0.07 0.18,0.2 v 1.64 h 1.16 c 0.13,0 0.2,0.07 0.2,0.2 v 0.62 c 0,0.13 -0.07,0.21 -0.2,0.21 H 97.2 v 4.18 c 0,0.51 0.23,0.71 0.64,0.71 0.11,0 0.3,-0.01 0.44,-0.03 0.2,-0.01 0.27,0.06 0.27,0.2 v 0.6 c 0,0.27 -0.58,0.34 -0.98,0.34 -0.99,0 -1.64,-0.5 -1.64,-1.65 z"
   id="path14" />
	<path
   class="st0"
   d="m 100.11,89.52 c -0.1,-0.11 -0.08,-0.23 0,-0.37 l 0.28,-0.4 c 0.1,-0.13 0.23,-0.13 0.34,-0.01 0.47,0.45 0.98,0.75 1.67,0.75 0.72,0 1.22,-0.31 1.22,-0.95 0,-0.57 -0.37,-0.82 -0.99,-1.08 l -0.84,-0.35 c -0.85,-0.35 -1.54,-0.89 -1.54,-1.87 0,-1.21 1.02,-1.93 2.21,-1.93 0.82,0 1.59,0.34 2.11,0.99 0.08,0.1 0.06,0.21 -0.01,0.3 l -0.34,0.4 c -0.11,0.14 -0.21,0.13 -0.34,0 -0.44,-0.44 -0.88,-0.64 -1.36,-0.64 -0.58,0 -1.05,0.3 -1.05,0.85 0,0.58 0.43,0.81 1.05,1.05 l 0.76,0.31 c 0.89,0.37 1.62,0.92 1.6,2 0,1.32 -1.13,2.03 -2.42,2.03 -1.13,-0.01 -1.91,-0.55 -2.35,-1.08 z"
   id="path15" />
	<path
   class="st0"
   d="m 106.5,86.94 c 0,-2.07 1.56,-3.63 3.63,-3.63 1.11,0 2.03,0.45 2.62,1.18 0.08,0.11 0.08,0.21 0,0.3 l -0.5,0.47 c -0.11,0.13 -0.24,0.08 -0.33,0 -0.42,-0.45 -0.94,-0.77 -1.76,-0.77 -1.4,0 -2.42,1.02 -2.42,2.45 0,1.43 1.02,2.47 2.45,2.47 0.81,0 1.32,-0.3 1.73,-0.74 0.1,-0.1 0.23,-0.14 0.34,-0.03 l 0.5,0.48 c 0.08,0.08 0.08,0.18 0,0.28 -0.6,0.74 -1.52,1.19 -2.64,1.19 -2.07,0 -3.62,-1.57 -3.62,-3.65 z"
   id="path16" />
	<path
   class="st0"
   d="m 114.78,90.22 v -9.74 c 0,-0.13 0.07,-0.2 0.2,-0.2 h 0.89 c 0.13,0 0.18,0.07 0.18,0.2 v 4.08 c 0.4,-0.71 1.13,-1.26 2.25,-1.26 1.49,0 2.52,1.01 2.52,2.83 v 4.08 c 0,0.13 -0.07,0.2 -0.2,0.2 h -0.89 c -0.13,0 -0.18,-0.07 -0.18,-0.2 v -3.88 c 0,-1.16 -0.59,-1.86 -1.66,-1.86 -1.07,0 -1.84,0.69 -1.84,1.86 v 3.88 c 0,0.13 -0.06,0.2 -0.18,0.2 h -0.89 c -0.13,0.01 -0.2,-0.06 -0.2,-0.19 z"
   id="path17" />
	<path
   class="st0"
   d="m 123.13,90.22 v -9.74 c 0,-0.13 0.07,-0.2 0.2,-0.2 h 0.89 c 0.13,0 0.2,0.07 0.2,0.2 v 9.74 c 0,0.13 -0.07,0.2 -0.2,0.2 h -0.89 c -0.13,0 -0.2,-0.07 -0.2,-0.2 z"
   id="path18" />
	<path
   class="st0"
   d="m 126.36,86.95 c 0,-2.07 1.39,-3.64 3.39,-3.64 1.19,0 2.07,0.55 2.57,1.43 l 0.03,-1.06 c 0,-0.13 0.06,-0.2 0.18,-0.2 h 0.82 c 0.13,0 0.2,0.07 0.2,0.2 v 6.55 c 0,0.13 -0.07,0.2 -0.2,0.2 h -0.82 c -0.13,0 -0.18,-0.07 -0.18,-0.2 l -0.03,-1.04 c -0.51,0.87 -1.38,1.4 -2.57,1.4 -2,0 -3.39,-1.56 -3.39,-3.64 z m 3.62,2.47 c 1.36,0 2.31,-0.98 2.31,-2.45 0,-1.47 -0.95,-2.48 -2.31,-2.48 -1.38,0 -2.37,1.01 -2.37,2.47 0,1.46 0.99,2.46 2.37,2.46 z"
   id="path19" />
	<path
   class="st0"
   d="m 135.85,90.22 v -6.55 c 0,-0.13 0.07,-0.2 0.2,-0.2 h 0.84 c 0.14,0 0.2,0.06 0.2,0.21 l 0.04,0.88 c 0.4,-0.71 1.13,-1.26 2.25,-1.26 1.49,0 2.52,1.01 2.52,2.83 v 4.08 c 0,0.13 -0.07,0.2 -0.2,0.2 h -0.89 c -0.13,0 -0.18,-0.07 -0.18,-0.2 v -3.88 c 0,-1.16 -0.59,-1.86 -1.66,-1.86 -1.07,0 -1.84,0.69 -1.84,1.86 v 3.88 c 0,0.13 -0.06,0.2 -0.18,0.2 h -0.89 c -0.14,0.01 -0.21,-0.06 -0.21,-0.19 z"
   id="path20" />
	<path
   class="st0"
   d="m 143.85,86.95 c 0,-2.07 1.39,-3.64 3.39,-3.64 1.15,0 2.01,0.51 2.51,1.35 v -4.17 c 0,-0.13 0.07,-0.2 0.2,-0.2 h 0.89 c 0.13,0 0.2,0.07 0.2,0.2 v 9.74 c 0,0.13 -0.07,0.2 -0.2,0.2 h -0.82 c -0.13,0 -0.18,-0.07 -0.18,-0.2 l -0.03,-1.04 c -0.51,0.87 -1.38,1.4 -2.57,1.4 -2,0 -3.39,-1.56 -3.39,-3.64 z m 3.61,2.47 c 1.36,0 2.31,-0.98 2.31,-2.45 0,-1.47 -0.95,-2.48 -2.31,-2.48 -1.38,0 -2.37,1.01 -2.37,2.47 0,1.46 1,2.46 2.37,2.46 z"
   id="path21" />
</g>
<g
   id="g26"
   transform="translate(33,0.01)">
	<path
   class="st1"
   d="M 17.44,73.6 10.04,61.64 H 8.18 v 11.7 c 0,0.47 -0.31,0.78 -0.78,0.78 H 0.78 C 0.31,74.11 0,73.8 0,73.34 V 38.66 C 0,38.19 0.31,37.88 0.78,37.88 H 11.9 c 8.75,0 12.89,4.87 12.89,11.9 0,5.12 -2.23,9.11 -6.83,10.87 l 8.02,12.53 c 0.36,0.57 0.1,0.93 -0.52,0.93 h -7.09 c -0.41,0 -0.72,-0.15 -0.93,-0.51 z M 11.7,54.39 c 2.74,0 5.28,-0.88 5.28,-4.61 0,-3.78 -2.54,-4.66 -5.28,-4.66 H 8.18 v 9.26 h 3.52 z"
   id="path22" />
	<path
   class="st1"
   d="M 32.4,73.34 V 38.66 c 0,-0.47 0.31,-0.78 0.78,-0.78 h 18.68 c 0.47,0 0.78,0.31 0.78,0.78 v 5.69 c 0,0.47 -0.31,0.78 -0.78,0.78 H 40.58 v 7.09 h 10.61 c 0.47,0 0.78,0.31 0.78,0.78 v 5.69 c 0,0.47 -0.31,0.78 -0.78,0.78 H 40.58 v 7.4 h 11.23 c 0.47,0 0.83,0.31 0.83,0.78 v 5.69 c 0,0.47 -0.36,0.78 -0.83,0.78 H 33.18 C 32.71,74.11 32.4,73.8 32.4,73.34 Z"
   id="path23" />
	<path
   class="st1"
   d="m 57.61,56.15 c 0,-10.66 8.38,-18.68 18.63,-18.68 5.28,0 9.58,1.97 12.68,5.18 0.41,0.47 0.41,0.93 -0.05,1.45 l -3.83,4.09 c -0.41,0.47 -0.83,0.47 -1.24,0.16 -1.97,-1.71 -4.45,-2.85 -7.5,-2.85 -5.9,0 -10.4,4.5 -10.4,10.66 0,6.16 4.5,10.61 10.82,10.61 5.23,0 8.23,-2.95 8.44,-6.37 h -8.54 c -0.47,0 -0.78,-0.36 -0.78,-0.83 v -5.64 c 0,-0.47 0.31,-0.78 0.78,-0.78 H 92.3 c 0.47,0 0.78,0.31 0.78,0.78 v 3.73 c 0,9.42 -6.26,17.13 -16.61,17.13 C 66,74.79 57.61,66.82 57.61,56.15 Z"
   id="path24" />
	<path
   class="st1"
   d="M 99.38,73.34 V 38.66 c 0,-0.47 0.31,-0.78 0.78,-0.78 h 6.62 c 0.47,0 0.78,0.31 0.78,0.78 v 34.68 c 0,0.47 -0.31,0.78 -0.78,0.78 h -6.62 C 99.69,74.11 99.38,73.8 99.38,73.34 Z"
   id="path25" />
	<path
   class="st1"
   d="m 114.39,56.15 c 0,-10.51 8.38,-18.68 18.63,-18.68 10.3,0 18.68,8.18 18.68,18.68 0,10.46 -8.38,18.63 -18.68,18.63 -10.24,0.01 -18.63,-8.17 -18.63,-18.63 z m 18.64,10.61 c 5.9,0 10.35,-4.61 10.35,-10.61 0,-6.11 -4.45,-10.66 -10.35,-10.66 -5.85,0 -10.35,4.55 -10.35,10.66 -0.01,6.01 4.5,10.61 10.35,10.61 z"
   id="path26" />
</g>
<g
   id="g34"
   transform="translate(33,0.01)">
	<g
   id="g30">
		<g
   id="g27">
			<path
   class="st2"
   d="m 161.17,20.89 -1.24,-0.72 c -0.35,-0.2 -0.48,-0.66 -0.27,-1.01 l 4.72,-8.17 -4.67,-8.08 h -9.33 l -4.67,8.08 4.72,8.17 c 0.2,0.35 0.08,0.81 -0.27,1.01 l -1.24,0.72 c -0.35,0.2 -0.81,0.08 -1.01,-0.27 l -5.14,-8.9 c -0.26,-0.45 -0.26,-1 0,-1.46 l 5.51,-9.54 c 0.26,-0.45 0.74,-0.73 1.26,-0.73 h 11.01 c 0.52,0 1,0.28 1.26,0.73 l 5.51,9.54 c 0.26,0.45 0.26,1 0,1.46 l -5.14,8.9 c -0.21,0.35 -0.66,0.47 -1.01,0.27 z"
   id="path27" />
		</g>
		<g
   id="g28">
			<path
   class="st2"
   d="m 143.29,31.52 h -10.68 c -0.26,0 -0.51,-0.14 -0.64,-0.37 L 126.05,20.9 c -0.13,-0.23 -0.13,-0.51 0,-0.74 l 5.92,-10.25 c 0.13,-0.23 0.38,-0.37 0.64,-0.37 h 5.18 c 0.41,0 0.74,0.33 0.74,0.74 v 1.43 c 0,0.41 -0.33,0.74 -0.74,0.74 h -3.5 c -0.26,0 -0.51,0.14 -0.64,0.37 l -4.24,7.34 c -0.13,0.23 -0.13,0.51 0,0.74 l 4.24,7.34 c 0.13,0.23 0.38,0.37 0.64,0.37 h 9 c 0.41,0 0.74,0.33 0.74,0.74 v 1.43 c 0,0.41 -0.33,0.74 -0.74,0.74 z"
   id="path28" />
		</g>
		<g
   id="g29">
			<path
   class="st2"
   d="M 177.07,31.52 H 166.8 c -0.41,0 -0.74,-0.33 -0.74,-0.74 v -1.43 c 0,-0.41 0.33,-0.74 0.74,-0.74 h 9.43 l 4.67,-8.08 -4.67,-8.08 h -3.93 c -0.41,0 -0.74,-0.33 -0.74,-0.74 v -1.43 c 0,-0.41 0.33,-0.74 0.74,-0.74 h 4.77 c 0.52,0 1,0.28 1.26,0.73 l 5.51,9.54 c 0.26,0.45 0.26,1 0,1.46 l -5.51,9.54 c -0.26,0.43 -0.74,0.71 -1.26,0.71 z"
   id="path29" />
		</g>
	</g>
	<g
   id="g31">
		<path
   class="st1"
   d="m 154.72,35.97 c -0.4,0 -0.77,-0.2 -0.98,-0.54 l -2.63,-4.1 c -0.22,-0.34 -0.12,-0.8 0.22,-1.02 l 0.72,-0.46 c 0.34,-0.22 0.8,-0.12 1.02,0.22 l 1.65,2.57 1.65,-2.57 c 0.22,-0.34 0.68,-0.44 1.02,-0.22 l 0.71,0.46 c 0.34,0.22 0.44,0.68 0.22,1.02 l -2.63,4.1 c -0.2,0.33 -0.57,0.54 -0.97,0.54 z"
   id="path30" />
	</g>
	<g
   id="g33">
		<g
   id="g32">
			<path
   class="st1"
   d="m 152.44,10.73 c 0,-1.45 1.24,-2.64 2.69,-2.64 1.45,0 2.64,1.19 2.64,2.64 0,1.55 -1.19,2.69 -2.64,2.69 -1.45,0 -2.69,-1.14 -2.69,-2.69 z"
   id="path31" />
		</g>
	</g>
</g>
</svg>
