<?xml version="1.0" encoding="utf-8"?>
<!-- Generator: Adobe Illustrator 27.5.0, SVG Export Plug-In . SVG Version: 6.00 Build 0)  -->
<svg version="1.1" id="REGIO" xmlns="http://www.w3.org/2000/svg" xmlns:xlink="http://www.w3.org/1999/xlink" x="0px" y="0px"
	 viewBox="0 0 184 74.8" style="enable-background:new 0 0 184 74.8;" xml:space="preserve">
<style type="text/css">
	.st0{fill:#127BAC;}
	.st1{fill:#79838C;}
</style>
<g>
	<path class="st0" d="M17.4,73.6l-7.4-12H8.2v11.7c0,0.5-0.3,0.8-0.8,0.8H0.8c-0.5,0-0.8-0.3-0.8-0.8V38.7c0-0.5,0.3-0.8,0.8-0.8
		h11.1c8.7,0,12.9,4.9,12.9,11.9c0,5.1-2.2,9.1-6.8,10.9l8,12.5c0.4,0.6,0.1,0.9-0.5,0.9h-7.1C18,74.1,17.6,74,17.4,73.6z
		 M11.7,54.4c2.7,0,5.3-0.9,5.3-4.6c0-3.8-2.5-4.7-5.3-4.7H8.2v9.3H11.7z"/>
	<path class="st0" d="M32.4,73.3V38.7c0-0.5,0.3-0.8,0.8-0.8h18.7c0.5,0,0.8,0.3,0.8,0.8v5.7c0,0.5-0.3,0.8-0.8,0.8H40.6v7.1h10.6
		c0.5,0,0.8,0.3,0.8,0.8v5.7c0,0.5-0.3,0.8-0.8,0.8H40.6v7.4h11.2c0.5,0,0.8,0.3,0.8,0.8v5.7c0,0.5-0.4,0.8-0.8,0.8H33.2
		C32.7,74.1,32.4,73.8,32.4,73.3z"/>
	<path class="st0" d="M57.6,56.2c0-10.7,8.4-18.7,18.6-18.7c5.3,0,9.6,2,12.7,5.2c0.4,0.5,0.4,0.9-0.1,1.4L85,48.2
		c-0.4,0.5-0.8,0.5-1.2,0.2c-2-1.7-4.5-2.8-7.5-2.8c-5.9,0-10.4,4.5-10.4,10.7s4.5,10.6,10.8,10.6c5.2,0,8.2-3,8.4-6.4h-8.5
		c-0.5,0-0.8-0.4-0.8-0.8v-5.6c0-0.5,0.3-0.8,0.8-0.8h15.7c0.5,0,0.8,0.3,0.8,0.8v3.7c0,9.4-6.3,17.1-16.6,17.1
		C66,74.8,57.6,66.8,57.6,56.2z"/>
	<path class="st0" d="M99.4,73.3V38.7c0-0.5,0.3-0.8,0.8-0.8h6.6c0.5,0,0.8,0.3,0.8,0.8v34.7c0,0.5-0.3,0.8-0.8,0.8h-6.6
		C99.7,74.1,99.4,73.8,99.4,73.3z"/>
	<path class="st0" d="M114.4,56.2c0-10.5,8.4-18.7,18.6-18.7c10.3,0,18.7,8.2,18.7,18.7c0,10.5-8.4,18.6-18.7,18.6
		C122.8,74.8,114.4,66.6,114.4,56.2z M133,66.8c5.9,0,10.4-4.6,10.4-10.6c0-6.1-4.5-10.7-10.4-10.7c-5.8,0-10.4,4.6-10.4,10.7
		C122.7,62.2,127.2,66.8,133,66.8z"/>
</g>
<g>
	<g>
		<g>
			<path class="st1" d="M161.2,20.9l-1.2-0.7c-0.4-0.2-0.5-0.7-0.3-1l4.7-8.2l-4.7-8.1h-9.3l-4.7,8.1l4.7,8.2c0.2,0.4,0.1,0.8-0.3,1
				l-1.2,0.7c-0.4,0.2-0.8,0.1-1-0.3l-5.1-8.9c-0.3-0.5-0.3-1,0-1.5l5.5-9.5c0.3-0.5,0.7-0.7,1.3-0.7h11c0.5,0,1,0.3,1.3,0.7
				l5.5,9.5c0.3,0.5,0.3,1,0,1.5l-5.1,8.9C162,21,161.5,21.1,161.2,20.9z"/>
		</g>
		<g>
			<path class="st1" d="M143.3,31.5h-10.7c-0.3,0-0.5-0.1-0.6-0.4L126,20.9c-0.1-0.2-0.1-0.5,0-0.7L132,9.9c0.1-0.2,0.4-0.4,0.6-0.4
				h5.2c0.4,0,0.7,0.3,0.7,0.7v1.4c0,0.4-0.3,0.7-0.7,0.7h-3.5c-0.3,0-0.5,0.1-0.6,0.4l-4.2,7.3c-0.1,0.2-0.1,0.5,0,0.7l4.2,7.3
				c0.1,0.2,0.4,0.4,0.6,0.4h9c0.4,0,0.7,0.3,0.7,0.7v1.4C144,31.2,143.7,31.5,143.3,31.5z"/>
		</g>
		<g>
			<path class="st1" d="M177.1,31.5h-10.3c-0.4,0-0.7-0.3-0.7-0.7v-1.4c0-0.4,0.3-0.7,0.7-0.7h9.4l4.7-8.1l-4.7-8.1h-3.9
				c-0.4,0-0.7-0.3-0.7-0.7v-1.4c0-0.4,0.3-0.7,0.7-0.7h4.8c0.5,0,1,0.3,1.3,0.7l5.5,9.5c0.3,0.5,0.3,1,0,1.5l-5.5,9.5
				C178.1,31.2,177.6,31.5,177.1,31.5z"/>
		</g>
	</g>
	<g>
		<path class="st0" d="M154.7,36c-0.4,0-0.8-0.2-1-0.5l-2.6-4.1c-0.2-0.3-0.1-0.8,0.2-1l0.7-0.5c0.3-0.2,0.8-0.1,1,0.2l1.6,2.6
			l1.6-2.6c0.2-0.3,0.7-0.4,1-0.2l0.7,0.5c0.3,0.2,0.4,0.7,0.2,1l-2.6,4.1C155.5,35.8,155.1,36,154.7,36z"/>
	</g>
	<g>
		<g>
			<path class="st0" d="M152.4,10.7c0-1.4,1.2-2.6,2.7-2.6s2.6,1.2,2.6,2.6c0,1.6-1.2,2.7-2.6,2.7S152.4,12.3,152.4,10.7z"/>
		</g>
	</g>
</g>
</svg>
