<?xml version="1.0" encoding="utf-8"?>
<!-- Generator: Adobe Illustrator 27.7.0, SVG Export Plug-In . SVG Version: 6.00 Build 0)  -->
<svg version="1.1" id="REGIO" xmlns="http://www.w3.org/2000/svg" xmlns:xlink="http://www.w3.org/1999/xlink" x="0px" y="0px"
	 viewBox="0 0 184.03 93.33" style="enable-background:new 0 0 184.03 93.33;" xml:space="preserve">
<style type="text/css">
	.st0{fill:#49535B;}
	.st1{fill:#127BAC;}
	.st2{fill:#79838C;}
</style>
<g>
	<path class="st0" d="M0.03,90.22V80.7c0-0.13,0.08-0.2,0.21-0.2h2.37c3.42,0,5.05,2.14,5.05,4.96c0,2.82-1.63,4.96-5.05,4.96H0.24
		C0.11,90.42,0.03,90.35,0.03,90.22z M2.58,89.23c2.57,0,3.73-1.4,3.73-3.77c0-2.37-1.16-3.79-3.73-3.79H1.36v7.56H2.58z"/>
	<path class="st0" d="M9.63,81.07c0-0.43,0.34-0.77,0.77-0.77c0.43,0,0.75,0.34,0.75,0.77c0,0.42-0.33,0.77-0.75,0.77
		C9.97,81.83,9.63,81.49,9.63,81.07z M9.76,83.68c0-0.13,0.06-0.2,0.18-0.2h0.89c0.13,0,0.2,0.07,0.2,0.2v6.55
		c0,0.13-0.07,0.2-0.2,0.2H9.94c-0.13,0-0.18-0.07-0.18-0.2V83.68z"/>
	<path class="st0" d="M13.98,92.63c-0.13-0.08-0.16-0.21-0.1-0.33l0.27-0.5c0.06-0.11,0.17-0.14,0.28-0.09
		c0.59,0.37,1.28,0.54,1.96,0.54c1.25,0,2.44-0.55,2.44-2.18v-1.06c-0.5,0.81-1.33,1.3-2.5,1.3c-1.98,0-3.36-1.45-3.36-3.51
		c0-2.04,1.38-3.5,3.34-3.5c1.18,0,2.03,0.5,2.52,1.33l0.01-0.96c0-0.13,0.07-0.2,0.2-0.2h0.82c0.13,0,0.18,0.07,0.18,0.2v6.45
		c0,2.31-1.8,3.2-3.59,3.2C15.47,93.33,14.56,93.04,13.98,92.63z M16.53,89.16c1.33,0,2.27-0.89,2.27-2.32
		c0-1.45-0.94-2.37-2.27-2.37c-1.32,0-2.31,0.92-2.31,2.34C14.22,88.25,15.21,89.16,16.53,89.16z"/>
	<path class="st0" d="M22.25,81.07c0-0.43,0.34-0.77,0.77-0.77c0.43,0,0.75,0.34,0.75,0.77c0,0.42-0.33,0.77-0.75,0.77
		C22.59,81.83,22.25,81.49,22.25,81.07z M22.38,83.68c0-0.13,0.06-0.2,0.18-0.2h0.89c0.13,0,0.2,0.07,0.2,0.2v6.55
		c0,0.13-0.07,0.2-0.2,0.2h-0.89c-0.13,0-0.18-0.07-0.18-0.2V83.68z"/>
	<path class="st0" d="M26.49,88.86v-4.35H25.6c-0.13,0-0.21-0.08-0.21-0.21v-0.62c0-0.13,0.08-0.2,0.21-0.2h0.89v-1.64
		c0-0.13,0.07-0.2,0.2-0.2h0.89c0.13,0,0.18,0.07,0.18,0.2v1.64h1.16c0.13,0,0.2,0.07,0.2,0.2v0.62c0,0.13-0.07,0.21-0.2,0.21h-1.16
		v4.18c0,0.51,0.23,0.71,0.64,0.71c0.11,0,0.3-0.01,0.44-0.03c0.2-0.01,0.27,0.06,0.27,0.2v0.6c0,0.27-0.58,0.34-0.98,0.34
		C27.14,90.51,26.49,90.01,26.49,88.86z"/>
	<path class="st0" d="M30.57,86.95c0-2.07,1.39-3.64,3.39-3.64c1.19,0,2.07,0.55,2.57,1.43l0.03-1.06c0-0.13,0.06-0.2,0.18-0.2h0.82
		c0.13,0,0.2,0.07,0.2,0.2v6.55c0,0.13-0.07,0.2-0.2,0.2h-0.82c-0.13,0-0.18-0.07-0.18-0.2l-0.03-1.04c-0.51,0.87-1.38,1.4-2.57,1.4
		C31.96,90.59,30.57,89.03,30.57,86.95z M34.19,89.42c1.36,0,2.31-0.98,2.31-2.45c0-1.47-0.95-2.48-2.31-2.48
		c-1.38,0-2.37,1.01-2.37,2.47C31.82,88.42,32.81,89.42,34.19,89.42z"/>
	<path class="st0" d="M40.06,90.22v-9.74c0-0.13,0.07-0.2,0.2-0.2h0.89c0.13,0,0.2,0.07,0.2,0.2v9.74c0,0.13-0.07,0.2-0.2,0.2h-0.89
		C40.13,90.42,40.06,90.35,40.06,90.22z"/>
	<path class="st0" d="M47.36,90.22v-5.71h-0.82c-0.13,0-0.21-0.08-0.21-0.21v-0.62c0-0.13,0.08-0.2,0.21-0.2h0.82v-1.43
		c0-1.32,0.69-1.98,1.97-1.98c0.3,0,0.55,0.03,0.79,0.14c0.08,0.04,0.13,0.08,0.13,0.18v0.78c0,0.1-0.08,0.11-0.18,0.1
		c-0.18-0.03-0.35-0.04-0.5-0.04c-0.77,0-0.92,0.45-0.92,1.05v1.2h1.39c0.13,0,0.21,0.07,0.21,0.2v0.62c0,0.13-0.08,0.21-0.21,0.21
		h-1.39v5.71c0,0.13-0.07,0.2-0.2,0.2h-0.89C47.43,90.42,47.36,90.35,47.36,90.22z"/>
	<path class="st0" d="M51.99,87.74v-4.07c0-0.13,0.07-0.2,0.2-0.2h0.89c0.13,0,0.18,0.07,0.18,0.2v3.88c0,1.16,0.6,1.84,1.66,1.84
		c1.06,0,1.84-0.68,1.84-1.84v-3.88c0-0.13,0.06-0.2,0.18-0.2h0.89c0.13,0,0.2,0.07,0.2,0.2v6.55c0,0.13-0.07,0.2-0.2,0.2H57
		c-0.14,0-0.18-0.06-0.2-0.21l-0.04-0.88c-0.4,0.71-1.13,1.26-2.25,1.26C53.02,90.59,51.99,89.59,51.99,87.74z M53.69,80.43
		c0.38,0,0.71,0.31,0.71,0.7c0,0.4-0.33,0.71-0.71,0.71c-0.38,0-0.71-0.31-0.71-0.71C52.98,80.74,53.3,80.43,53.69,80.43z
		 M56.41,80.43c0.38,0,0.71,0.31,0.71,0.7c0,0.4-0.33,0.71-0.71,0.71c-0.38,0-0.71-0.31-0.71-0.71
		C55.7,80.74,56.03,80.43,56.41,80.43z"/>
	<path class="st0" d="M60.34,90.22v-6.55c0-0.13,0.07-0.2,0.2-0.2h0.84c0.14,0,0.2,0.06,0.2,0.21l0.04,0.82
		c0.25-0.68,0.72-1.21,1.57-1.21c0.3,0,0.51,0.06,0.64,0.14c0.09,0.07,0.11,0.13,0.11,0.26v0.71c0,0.16-0.1,0.18-0.26,0.14
		c-0.18-0.04-0.35-0.07-0.51-0.07c-1.16,0-1.56,0.98-1.56,1.81v3.93c0,0.13-0.06,0.2-0.18,0.2h-0.89
		C60.41,90.42,60.34,90.35,60.34,90.22z"/>
	<path class="st0" d="M68.87,90.22V80.7c0-0.13,0.08-0.2,0.21-0.2h2.37c3.42,0,5.05,2.14,5.05,4.96c0,2.82-1.63,4.96-5.05,4.96
		h-2.37C68.96,90.42,68.87,90.35,68.87,90.22z M71.43,89.23c2.57,0,3.73-1.4,3.73-3.77c0-2.37-1.16-3.79-3.73-3.79h-1.22v7.56H71.43
		z"/>
	<path class="st0" d="M78.23,86.92c0-2.04,1.43-3.62,3.52-3.62c2.07,0,3.27,1.57,3.27,3.29c0,0.57-0.11,0.82-0.58,0.82h-4.96
		c0.16,1.25,1.05,2.13,2.58,2.13c0.77,0,1.35-0.21,1.89-0.6c0.08-0.06,0.17-0.06,0.23,0.01l0.31,0.44c0.1,0.11,0.06,0.2-0.06,0.3
		c-0.61,0.59-1.5,0.89-2.48,0.89C79.68,90.59,78.23,88.96,78.23,86.92z M83.89,86.47c-0.07-1.25-0.89-2.07-2.14-2.07
		c-1.25,0-2.13,0.78-2.27,2.07H83.89z"/>
	<path class="st0" d="M86.9,87.74v-4.07c0-0.13,0.07-0.2,0.2-0.2h0.89c0.13,0,0.18,0.07,0.18,0.2v3.88c0,1.16,0.6,1.84,1.66,1.84
		c1.06,0,1.84-0.68,1.84-1.84v-3.88c0-0.13,0.06-0.2,0.18-0.2h0.89c0.13,0,0.2,0.07,0.2,0.2v6.55c0,0.13-0.07,0.2-0.2,0.2h-0.84
		c-0.14,0-0.18-0.06-0.2-0.21l-0.04-0.88c-0.4,0.71-1.13,1.26-2.25,1.26C87.93,90.59,86.9,89.59,86.9,87.74z"/>
	<path class="st0" d="M95.93,88.86v-4.35h-0.89c-0.13,0-0.21-0.08-0.21-0.21v-0.62c0-0.13,0.08-0.2,0.21-0.2h0.89v-1.64
		c0-0.13,0.07-0.2,0.2-0.2h0.89c0.13,0,0.18,0.07,0.18,0.2v1.64h1.16c0.13,0,0.2,0.07,0.2,0.2v0.62c0,0.13-0.07,0.21-0.2,0.21h-1.16
		v4.18c0,0.51,0.23,0.71,0.64,0.71c0.11,0,0.3-0.01,0.44-0.03c0.2-0.01,0.27,0.06,0.27,0.2v0.6c0,0.27-0.58,0.34-0.98,0.34
		C96.58,90.51,95.93,90.01,95.93,88.86z"/>
	<path class="st0" d="M100.11,89.52c-0.1-0.11-0.08-0.23,0-0.37l0.28-0.4c0.1-0.13,0.23-0.13,0.34-0.01
		c0.47,0.45,0.98,0.75,1.67,0.75c0.72,0,1.22-0.31,1.22-0.95c0-0.57-0.37-0.82-0.99-1.08l-0.84-0.35c-0.85-0.35-1.54-0.89-1.54-1.87
		c0-1.21,1.02-1.93,2.21-1.93c0.82,0,1.59,0.34,2.11,0.99c0.08,0.1,0.06,0.21-0.01,0.3l-0.34,0.4c-0.11,0.14-0.21,0.13-0.34,0
		c-0.44-0.44-0.88-0.64-1.36-0.64c-0.58,0-1.05,0.3-1.05,0.85c0,0.58,0.43,0.81,1.05,1.05l0.76,0.31c0.89,0.37,1.62,0.92,1.6,2
		c0,1.32-1.13,2.03-2.42,2.03C101.33,90.59,100.55,90.05,100.11,89.52z"/>
	<path class="st0" d="M106.5,86.94c0-2.07,1.56-3.63,3.63-3.63c1.11,0,2.03,0.45,2.62,1.18c0.08,0.11,0.08,0.21,0,0.3l-0.5,0.47
		c-0.11,0.13-0.24,0.08-0.33,0c-0.42-0.45-0.94-0.77-1.76-0.77c-1.4,0-2.42,1.02-2.42,2.45s1.02,2.47,2.45,2.47
		c0.81,0,1.32-0.3,1.73-0.74c0.1-0.1,0.23-0.14,0.34-0.03l0.5,0.48c0.08,0.08,0.08,0.18,0,0.28c-0.6,0.74-1.52,1.19-2.64,1.19
		C108.05,90.59,106.5,89.02,106.5,86.94z"/>
	<path class="st0" d="M114.78,90.22v-9.74c0-0.13,0.07-0.2,0.2-0.2h0.89c0.13,0,0.18,0.07,0.18,0.2v4.08
		c0.4-0.71,1.13-1.26,2.25-1.26c1.49,0,2.52,1.01,2.52,2.83v4.08c0,0.13-0.07,0.2-0.2,0.2h-0.89c-0.13,0-0.18-0.07-0.18-0.2v-3.88
		c0-1.16-0.59-1.86-1.66-1.86s-1.84,0.69-1.84,1.86v3.88c0,0.13-0.06,0.2-0.18,0.2h-0.89C114.85,90.42,114.78,90.35,114.78,90.22z"
		/>
	<path class="st0" d="M123.13,90.22v-9.74c0-0.13,0.07-0.2,0.2-0.2h0.89c0.13,0,0.2,0.07,0.2,0.2v9.74c0,0.13-0.07,0.2-0.2,0.2
		h-0.89C123.2,90.42,123.13,90.35,123.13,90.22z"/>
	<path class="st0" d="M126.36,86.95c0-2.07,1.39-3.64,3.39-3.64c1.19,0,2.07,0.55,2.57,1.43l0.03-1.06c0-0.13,0.06-0.2,0.18-0.2
		h0.82c0.13,0,0.2,0.07,0.2,0.2v6.55c0,0.13-0.07,0.2-0.2,0.2h-0.82c-0.13,0-0.18-0.07-0.18-0.2l-0.03-1.04
		c-0.51,0.87-1.38,1.4-2.57,1.4C127.75,90.59,126.36,89.03,126.36,86.95z M129.98,89.42c1.36,0,2.31-0.98,2.31-2.45
		c0-1.47-0.95-2.48-2.31-2.48c-1.38,0-2.37,1.01-2.37,2.47C127.61,88.42,128.6,89.42,129.98,89.42z"/>
	<path class="st0" d="M135.85,90.22v-6.55c0-0.13,0.07-0.2,0.2-0.2h0.84c0.14,0,0.2,0.06,0.2,0.21l0.04,0.88
		c0.4-0.71,1.13-1.26,2.25-1.26c1.49,0,2.52,1.01,2.52,2.83v4.08c0,0.13-0.07,0.2-0.2,0.2h-0.89c-0.13,0-0.18-0.07-0.18-0.2v-3.88
		c0-1.16-0.59-1.86-1.66-1.86s-1.84,0.69-1.84,1.86v3.88c0,0.13-0.06,0.2-0.18,0.2h-0.89C135.92,90.42,135.85,90.35,135.85,90.22z"
		/>
	<path class="st0" d="M143.85,86.95c0-2.07,1.39-3.64,3.39-3.64c1.15,0,2.01,0.51,2.51,1.35v-4.17c0-0.13,0.07-0.2,0.2-0.2h0.89
		c0.13,0,0.2,0.07,0.2,0.2v9.74c0,0.13-0.07,0.2-0.2,0.2h-0.82c-0.13,0-0.18-0.07-0.18-0.2l-0.03-1.04c-0.51,0.87-1.38,1.4-2.57,1.4
		C145.24,90.59,143.85,89.03,143.85,86.95z M147.46,89.42c1.36,0,2.31-0.98,2.31-2.45c0-1.47-0.95-2.48-2.31-2.48
		c-1.38,0-2.37,1.01-2.37,2.47C145.09,88.42,146.09,89.42,147.46,89.42z"/>
</g>
<g>
	<path class="st1" d="M17.44,73.6l-7.4-11.96H8.18v11.7c0,0.47-0.31,0.78-0.78,0.78H0.78C0.31,74.11,0,73.8,0,73.34V38.66
		c0-0.47,0.31-0.78,0.78-0.78H11.9c8.75,0,12.89,4.87,12.89,11.9c0,5.12-2.23,9.11-6.83,10.87l8.02,12.53
		c0.36,0.57,0.1,0.93-0.52,0.93h-7.09C17.96,74.11,17.65,73.96,17.44,73.6z M11.7,54.39c2.74,0,5.28-0.88,5.28-4.61
		c0-3.78-2.54-4.66-5.28-4.66H8.18v9.26H11.7z"/>
	<path class="st1" d="M32.4,73.34V38.66c0-0.47,0.31-0.78,0.78-0.78h18.68c0.47,0,0.78,0.31,0.78,0.78v5.69
		c0,0.47-0.31,0.78-0.78,0.78H40.58v7.09h10.61c0.47,0,0.78,0.31,0.78,0.78v5.69c0,0.47-0.31,0.78-0.78,0.78H40.58v7.4h11.23
		c0.47,0,0.83,0.31,0.83,0.78v5.69c0,0.47-0.36,0.78-0.83,0.78H33.18C32.71,74.11,32.4,73.8,32.4,73.34z"/>
	<path class="st1" d="M57.61,56.15c0-10.66,8.38-18.68,18.63-18.68c5.28,0,9.58,1.97,12.68,5.18c0.41,0.47,0.41,0.93-0.05,1.45
		l-3.83,4.09c-0.41,0.47-0.83,0.47-1.24,0.16c-1.97-1.71-4.45-2.85-7.5-2.85c-5.9,0-10.4,4.5-10.4,10.66s4.5,10.61,10.82,10.61
		c5.23,0,8.23-2.95,8.44-6.37h-8.54c-0.47,0-0.78-0.36-0.78-0.83v-5.64c0-0.47,0.31-0.78,0.78-0.78h15.68
		c0.47,0,0.78,0.31,0.78,0.78v3.73c0,9.42-6.26,17.13-16.61,17.13C66,74.79,57.61,66.82,57.61,56.15z"/>
	<path class="st1" d="M99.38,73.34V38.66c0-0.47,0.31-0.78,0.78-0.78h6.62c0.47,0,0.78,0.31,0.78,0.78v34.68
		c0,0.47-0.31,0.78-0.78,0.78h-6.62C99.69,74.11,99.38,73.8,99.38,73.34z"/>
	<path class="st1" d="M114.39,56.15c0-10.51,8.38-18.68,18.63-18.68c10.3,0,18.68,8.18,18.68,18.68c0,10.46-8.38,18.63-18.68,18.63
		C122.78,74.79,114.39,66.61,114.39,56.15z M133.03,66.76c5.9,0,10.35-4.61,10.35-10.61c0-6.11-4.45-10.66-10.35-10.66
		c-5.85,0-10.35,4.55-10.35,10.66C122.67,62.16,127.18,66.76,133.03,66.76z"/>
</g>
<g>
	<g>
		<g>
			<path class="st2" d="M161.17,20.89l-1.24-0.72c-0.35-0.2-0.48-0.66-0.27-1.01l4.72-8.17l-4.67-8.08h-9.33l-4.67,8.08l4.72,8.17
				c0.2,0.35,0.08,0.81-0.27,1.01l-1.24,0.72c-0.35,0.2-0.81,0.08-1.01-0.27l-5.14-8.9c-0.26-0.45-0.26-1,0-1.46l5.51-9.54
				c0.26-0.45,0.74-0.73,1.26-0.73h11.01c0.52,0,1,0.28,1.26,0.73l5.51,9.54c0.26,0.45,0.26,1,0,1.46l-5.14,8.9
				C161.97,20.97,161.52,21.09,161.17,20.89z"/>
		</g>
		<g>
			<path class="st2" d="M143.29,31.52h-10.68c-0.26,0-0.51-0.14-0.64-0.37l-5.92-10.25c-0.13-0.23-0.13-0.51,0-0.74l5.92-10.25
				c0.13-0.23,0.38-0.37,0.64-0.37h5.18c0.41,0,0.74,0.33,0.74,0.74v1.43c0,0.41-0.33,0.74-0.74,0.74h-3.5
				c-0.26,0-0.51,0.14-0.64,0.37l-4.24,7.34c-0.13,0.23-0.13,0.51,0,0.74l4.24,7.34c0.13,0.23,0.38,0.37,0.64,0.37h9
				c0.41,0,0.74,0.33,0.74,0.74v1.43C144.03,31.19,143.7,31.52,143.29,31.52z"/>
		</g>
		<g>
			<path class="st2" d="M177.07,31.52h-10.27c-0.41,0-0.74-0.33-0.74-0.74v-1.43c0-0.41,0.33-0.74,0.74-0.74h9.43l4.67-8.08
				l-4.67-8.08h-3.93c-0.41,0-0.74-0.33-0.74-0.74v-1.43c0-0.41,0.33-0.74,0.74-0.74h4.77c0.52,0,1,0.28,1.26,0.73l5.51,9.54
				c0.26,0.45,0.26,1,0,1.46l-5.51,9.54C178.07,31.24,177.59,31.52,177.07,31.52z"/>
		</g>
	</g>
	<g>
		<path class="st1" d="M154.72,35.97c-0.4,0-0.77-0.2-0.98-0.54l-2.63-4.1c-0.22-0.34-0.12-0.8,0.22-1.02l0.72-0.46
			c0.34-0.22,0.8-0.12,1.02,0.22l1.65,2.57l1.65-2.57c0.22-0.34,0.68-0.44,1.02-0.22l0.71,0.46c0.34,0.22,0.44,0.68,0.22,1.02
			l-2.63,4.1C155.49,35.76,155.12,35.97,154.72,35.97z"/>
	</g>
	<g>
		<g>
			<path class="st1" d="M152.44,10.73c0-1.45,1.24-2.64,2.69-2.64s2.64,1.19,2.64,2.64c0,1.55-1.19,2.69-2.64,2.69
				S152.44,12.28,152.44,10.73z"/>
		</g>
	</g>
</g>
</svg>
