<?xml version="1.0" encoding="utf-8"?>
<!-- Generator: Adobe Illustrator 27.7.0, SVG Export Plug-In . SVG Version: 6.00 Build 0)  -->
<svg version="1.1" id="Ebene_1" xmlns="http://www.w3.org/2000/svg" xmlns:xlink="http://www.w3.org/1999/xlink" x="0px" y="0px"
	 viewBox="0 0 133.41 48.86" style="enable-background:new 0 0 133.41 48.86;" xml:space="preserve">
<style type="text/css">
	.st0{clip-path:url(#SVGID_00000073691109161818093770000017633554192007960251_);}
	.st1{fill:#79838C;}
	.st2{fill:#127BAC;}
</style>
<g>
	<defs>
		<rect id="SVGID_1_" width="133.41" height="48.86"/>
	</defs>
	<clipPath id="SVGID_00000179604851463029472030000008274943968370736317_">
		<use xlink:href="#SVGID_1_"  style="overflow:visible;"/>
	</clipPath>
	<g style="clip-path:url(#SVGID_00000179604851463029472030000008274943968370736317_);">
		<g>
			<g>
				<path class="st1" d="M73.97,49.26l-1.4-0.81c-0.4-0.23-0.54-0.74-0.31-1.14l5.31-9.2L72.32,29H61.81l-5.26,9.11l5.31,9.2
					c0.23,0.4,0.09,0.91-0.31,1.14l-1.4,0.81c-0.4,0.23-0.91,0.09-1.14-0.31l-5.79-10.02c-0.29-0.51-0.29-1.13,0-1.64l6.2-10.75
					c0.29-0.51,0.83-0.82,1.42-0.82h12.41c0.59,0,1.13,0.31,1.42,0.82l6.2,10.75c0.29,0.51,0.29,1.13,0,1.64l-5.79,10.02
					C74.88,49.35,74.37,49.49,73.97,49.26z"/>
			</g>
			<g>
				<path class="st1" d="M53.82,61.24H41.78c-0.3,0-0.57-0.16-0.72-0.42l-6.67-11.55c-0.15-0.26-0.15-0.58,0-0.83l6.67-11.55
					c0.15-0.26,0.42-0.42,0.72-0.42h5.84c0.46,0,0.83,0.37,0.83,0.83v1.61c0,0.46-0.37,0.83-0.83,0.83h-3.94
					c-0.3,0-0.57,0.16-0.72,0.42l-4.78,8.27c-0.15,0.26-0.15,0.58,0,0.83l4.78,8.27c0.15,0.26,0.42,0.42,0.72,0.42h10.15
					c0.46,0,0.83,0.37,0.83,0.83v1.61C54.66,60.87,54.28,61.24,53.82,61.24z"/>
			</g>
			<g>
				<path class="st1" d="M91.88,61.24H80.31c-0.46,0-0.83-0.37-0.83-0.83V58.8c0-0.46,0.37-0.83,0.83-0.83h10.63l5.26-9.11
					l-5.26-9.11h-4.42c-0.46,0-0.83-0.37-0.83-0.83v-1.61c0-0.46,0.37-0.83,0.83-0.83h5.37c0.59,0,1.13,0.31,1.42,0.82l6.2,10.75
					c0.29,0.51,0.29,1.13,0,1.64l-6.2,10.75C93.01,60.93,92.47,61.24,91.88,61.24z"/>
			</g>
		</g>
		<g>
			<path class="st2" d="M66.71,66.25c-0.45,0-0.86-0.23-1.1-0.6l-2.96-4.62c-0.25-0.39-0.14-0.9,0.25-1.15l0.81-0.52
				c0.39-0.25,0.9-0.14,1.15,0.25l1.86,2.9l1.86-2.9c0.25-0.39,0.76-0.5,1.15-0.25l0.81,0.52c0.39,0.25,0.5,0.76,0.25,1.15
				l-2.96,4.62C67.57,66.02,67.15,66.25,66.71,66.25z"/>
		</g>
		<g>
			<g>
				<path class="st2" d="M64.14,37.81c0-1.63,1.4-2.97,3.03-2.97s2.97,1.34,2.97,2.97c0,1.75-1.34,3.03-2.97,3.03
					S64.14,39.56,64.14,37.81z"/>
			</g>
		</g>
	</g>
	<g style="clip-path:url(#SVGID_00000179604851463029472030000008274943968370736317_);">
		<g>
			<g>
				<path class="st1" d="M140.68,29.11l-1.4-0.81c-0.4-0.23-0.54-0.74-0.31-1.14l5.31-9.2l-5.26-9.11h-10.52l-5.26,9.11l5.31,9.2
					c0.23,0.4,0.09,0.91-0.31,1.14l-1.4,0.81c-0.4,0.23-0.91,0.09-1.14-0.31l-5.79-10.02c-0.29-0.51-0.29-1.13,0-1.64l6.2-10.75
					c0.29-0.51,0.83-0.82,1.42-0.82h12.41c0.59,0,1.13,0.31,1.42,0.82l6.2,10.75c0.29,0.51,0.29,1.13,0,1.64l-5.79,10.02
					C141.59,29.2,141.08,29.34,140.68,29.11z"/>
			</g>
			<g>
				<path class="st1" d="M120.53,41.09H108.5c-0.3,0-0.57-0.16-0.72-0.42l-6.67-11.55c-0.15-0.26-0.15-0.58,0-0.83l6.67-11.55
					c0.15-0.26,0.42-0.42,0.72-0.42h5.84c0.46,0,0.83,0.37,0.83,0.83v1.61c0,0.46-0.37,0.83-0.83,0.83h-3.94
					c-0.3,0-0.57,0.16-0.72,0.42l-4.78,8.27c-0.15,0.26-0.15,0.58,0,0.83l4.78,8.27c0.15,0.26,0.42,0.42,0.72,0.42h10.15
					c0.46,0,0.83,0.37,0.83,0.83v1.61C121.37,40.72,121,41.09,120.53,41.09z"/>
			</g>
			<g>
				<path class="st1" d="M158.59,41.09h-11.57c-0.46,0-0.83-0.37-0.83-0.83v-1.61c0-0.46,0.37-0.83,0.83-0.83h10.63l5.26-9.11
					l-5.26-9.11h-4.42c-0.46,0-0.83-0.37-0.83-0.83v-1.61c0-0.46,0.37-0.83,0.83-0.83h5.37c0.59,0,1.13,0.31,1.42,0.82l6.2,10.75
					c0.29,0.51,0.29,1.13,0,1.64l-6.2,10.75C159.72,40.78,159.18,41.09,158.59,41.09z"/>
			</g>
		</g>
		<g>
			<path class="st2" d="M133.42,46.1c-0.45,0-0.86-0.23-1.1-0.6l-2.96-4.62c-0.25-0.39-0.14-0.9,0.25-1.15l0.81-0.52
				c0.39-0.25,0.9-0.14,1.15,0.25l1.86,2.9l1.86-2.9c0.25-0.39,0.76-0.5,1.15-0.25l0.81,0.52c0.39,0.25,0.5,0.76,0.25,1.15
				l-2.96,4.62C134.28,45.87,133.86,46.1,133.42,46.1z"/>
		</g>
		<g>
			<g>
				<path class="st2" d="M130.85,17.66c0-1.63,1.4-2.97,3.03-2.97c1.63,0,2.97,1.34,2.97,2.97c0,1.75-1.34,3.03-2.97,3.03
					C132.25,20.69,130.85,19.41,130.85,17.66z"/>
			</g>
		</g>
	</g>
	<g style="clip-path:url(#SVGID_00000179604851463029472030000008274943968370736317_);">
		<g>
			<g>
				<path class="st1" d="M7.26,29.11l-1.4-0.81c-0.4-0.23-0.54-0.74-0.31-1.14l5.31-9.2L5.61,8.85H-4.9l-5.26,9.11l5.31,9.2
					c0.23,0.4,0.09,0.91-0.31,1.14l-1.4,0.81c-0.4,0.23-0.91,0.09-1.14-0.31l-5.79-10.02c-0.29-0.51-0.29-1.13,0-1.64l6.2-10.75
					c0.29-0.51,0.83-0.82,1.42-0.82H6.56c0.59,0,1.13,0.31,1.42,0.82l6.2,10.75c0.29,0.51,0.29,1.13,0,1.64L8.4,28.8
					C8.17,29.2,7.66,29.34,7.26,29.11z"/>
			</g>
			<g>
				<path class="st1" d="M-12.89,41.09h-12.04c-0.3,0-0.57-0.16-0.72-0.42l-6.67-11.55c-0.15-0.26-0.15-0.58,0-0.83l6.67-11.55
					c0.15-0.26,0.42-0.42,0.72-0.42h5.84c0.46,0,0.83,0.37,0.83,0.83v1.61c0,0.46-0.37,0.83-0.83,0.83h-3.94
					c-0.3,0-0.57,0.16-0.72,0.42l-4.78,8.27c-0.15,0.26-0.15,0.58,0,0.83l4.78,8.27c0.15,0.26,0.42,0.42,0.72,0.42h10.15
					c0.46,0,0.83,0.37,0.83,0.83v1.61C-12.05,40.72-12.43,41.09-12.89,41.09z"/>
			</g>
			<g>
				<path class="st1" d="M25.17,41.09H13.6c-0.46,0-0.83-0.37-0.83-0.83v-1.61c0-0.46,0.37-0.83,0.83-0.83h10.63l5.26-9.11
					l-5.26-9.11H19.8c-0.46,0-0.83-0.37-0.83-0.83v-1.61c0-0.46,0.37-0.83,0.83-0.83h5.37c0.59,0,1.13,0.31,1.42,0.82l6.2,10.75
					c0.29,0.51,0.29,1.13,0,1.64l-6.2,10.75C26.3,40.78,25.76,41.09,25.17,41.09z"/>
			</g>
		</g>
		<g>
			<path class="st2" d="M0,46.1c-0.45,0-0.86-0.23-1.1-0.6l-2.96-4.62c-0.25-0.39-0.14-0.9,0.25-1.15l0.81-0.52
				c0.39-0.25,0.9-0.14,1.15,0.25L0,42.35l1.86-2.9C2.1,39.07,2.62,38.95,3,39.2l0.81,0.52c0.39,0.25,0.5,0.76,0.25,1.15L1.1,45.49
				C0.86,45.87,0.44,46.1,0,46.1z"/>
		</g>
		<g>
			<g>
				<path class="st2" d="M-2.57,17.66c0-1.63,1.4-2.97,3.03-2.97s2.97,1.34,2.97,2.97c0,1.75-1.34,3.03-2.97,3.03
					S-2.57,19.41-2.57,17.66z"/>
			</g>
		</g>
	</g>
	<g style="clip-path:url(#SVGID_00000179604851463029472030000008274943968370736317_);">
		<g>
			<g>
				<path class="st1" d="M73.97,0.4l-1.4-0.81c-0.4-0.23-0.54-0.74-0.31-1.14l5.31-9.2l-5.26-9.11H61.81l-5.26,9.11l5.31,9.2
					c0.23,0.4,0.09,0.91-0.31,1.14l-1.4,0.81c-0.4,0.23-0.91,0.09-1.14-0.31L53.24-9.93c-0.29-0.51-0.29-1.13,0-1.64l6.2-10.75
					c0.29-0.51,0.83-0.82,1.42-0.82h12.41c0.59,0,1.13,0.31,1.42,0.82l6.2,10.75c0.29,0.51,0.29,1.13,0,1.64L75.11,0.1
					C74.88,0.49,74.37,0.63,73.97,0.4z"/>
			</g>
			<g>
				<path class="st1" d="M53.82,12.39H41.78c-0.3,0-0.57-0.16-0.72-0.42L34.39,0.42c-0.15-0.26-0.15-0.58,0-0.83l6.67-11.55
					c0.15-0.26,0.42-0.42,0.72-0.42h5.84c0.46,0,0.83,0.37,0.83,0.83v1.61c0,0.46-0.37,0.83-0.83,0.83h-3.94
					c-0.3,0-0.57,0.16-0.72,0.42l-4.78,8.27c-0.15,0.26-0.15,0.58,0,0.83l4.78,8.27c0.15,0.26,0.42,0.42,0.72,0.42h10.15
					c0.46,0,0.83,0.37,0.83,0.83v1.61C54.66,12.01,54.28,12.39,53.82,12.39z"/>
			</g>
			<g>
				<path class="st1" d="M91.88,12.39H80.31c-0.46,0-0.83-0.37-0.83-0.83V9.94c0-0.46,0.37-0.83,0.83-0.83h10.63L96.19,0l-5.26-9.11
					h-4.42c-0.46,0-0.83-0.37-0.83-0.83v-1.61c0-0.46,0.37-0.83,0.83-0.83h5.37c0.59,0,1.13,0.31,1.42,0.82l6.2,10.75
					c0.29,0.51,0.29,1.13,0,1.64l-6.2,10.75C93.01,12.07,92.47,12.39,91.88,12.39z"/>
			</g>
		</g>
		<g>
			<path class="st2" d="M66.71,17.39c-0.45,0-0.86-0.23-1.1-0.6l-2.96-4.62c-0.25-0.39-0.14-0.9,0.25-1.15l0.81-0.52
				c0.39-0.25,0.9-0.14,1.15,0.25l1.86,2.9l1.86-2.9c0.25-0.39,0.76-0.5,1.15-0.25l0.81,0.52c0.39,0.25,0.5,0.76,0.25,1.15
				l-2.96,4.62C67.57,17.17,67.15,17.39,66.71,17.39z"/>
		</g>
		<g>
			<g>
				<path class="st2" d="M64.14-11.05c0-1.63,1.4-2.97,3.03-2.97s2.97,1.34,2.97,2.97c0,1.75-1.34,3.03-2.97,3.03
					S64.14-9.3,64.14-11.05z"/>
			</g>
		</g>
	</g>
	<g style="clip-path:url(#SVGID_00000179604851463029472030000008274943968370736317_);">
		<g>
			<g>
				<path class="st1" d="M140.68-19.75l-1.4-0.81c-0.4-0.23-0.54-0.74-0.31-1.14l5.31-9.2l-5.26-9.11h-10.52l-5.26,9.11l5.31,9.2
					c0.23,0.4,0.09,0.91-0.31,1.14l-1.4,0.81c-0.4,0.23-0.91,0.09-1.14-0.31l-5.79-10.02c-0.29-0.51-0.29-1.13,0-1.64l6.2-10.75
					c0.29-0.51,0.83-0.82,1.42-0.82h12.41c0.59,0,1.13,0.31,1.42,0.82l6.2,10.75c0.29,0.51,0.29,1.13,0,1.64l-5.79,10.02
					C141.59-19.66,141.08-19.52,140.68-19.75z"/>
			</g>
			<g>
				<path class="st1" d="M120.53-7.77H108.5c-0.3,0-0.57-0.16-0.72-0.42l-6.67-11.55c-0.15-0.26-0.15-0.58,0-0.83l6.67-11.55
					c0.15-0.26,0.42-0.42,0.72-0.42h5.84c0.46,0,0.83,0.37,0.83,0.83v1.61c0,0.46-0.37,0.83-0.83,0.83h-3.94
					c-0.3,0-0.57,0.16-0.72,0.42l-4.78,8.27c-0.15,0.26-0.15,0.58,0,0.83l4.78,8.27c0.15,0.26,0.42,0.42,0.72,0.42h10.15
					c0.46,0,0.83,0.37,0.83,0.83v1.61C121.37-8.14,121-7.77,120.53-7.77z"/>
			</g>
			<g>
				<path class="st1" d="M158.59-7.77h-11.57c-0.46,0-0.83-0.37-0.83-0.83v-1.61c0-0.46,0.37-0.83,0.83-0.83h10.63l5.26-9.11
					l-5.26-9.11h-4.42c-0.46,0-0.83-0.37-0.83-0.83v-1.61c0-0.46,0.37-0.83,0.83-0.83h5.37c0.59,0,1.13,0.31,1.42,0.82l6.2,10.75
					c0.29,0.51,0.29,1.13,0,1.64l-6.2,10.75C159.72-8.08,159.18-7.77,158.59-7.77z"/>
			</g>
		</g>
		<g>
			<path class="st2" d="M133.42-2.76c-0.45,0-0.86-0.23-1.1-0.6l-2.96-4.62c-0.25-0.39-0.14-0.9,0.25-1.15l0.81-0.52
				c0.39-0.25,0.9-0.14,1.15,0.25l1.86,2.9l1.86-2.9c0.25-0.39,0.76-0.5,1.15-0.25l0.81,0.52c0.39,0.25,0.5,0.76,0.25,1.15
				l-2.96,4.62C134.28-2.99,133.86-2.76,133.42-2.76z"/>
		</g>
		<g>
			<g>
				<path class="st2" d="M130.85-31.2c0-1.63,1.4-2.97,3.03-2.97c1.63,0,2.97,1.34,2.97,2.97c0,1.75-1.34,3.03-2.97,3.03
					C132.25-28.17,130.85-29.45,130.85-31.2z"/>
			</g>
		</g>
	</g>
	<g style="clip-path:url(#SVGID_00000179604851463029472030000008274943968370736317_);">
		<g>
			<g>
				<path class="st1" d="M7.26-19.75l-1.4-0.81c-0.4-0.23-0.54-0.74-0.31-1.14l5.31-9.2l-5.26-9.11H-4.9l-5.26,9.11l5.31,9.2
					c0.23,0.4,0.09,0.91-0.31,1.14l-1.4,0.81c-0.4,0.23-0.91,0.09-1.14-0.31l-5.79-10.02c-0.29-0.51-0.29-1.13,0-1.64l6.2-10.75
					c0.29-0.51,0.83-0.82,1.42-0.82H6.56c0.59,0,1.13,0.31,1.42,0.82l6.2,10.75c0.29,0.51,0.29,1.13,0,1.64L8.4-20.06
					C8.17-19.66,7.66-19.52,7.26-19.75z"/>
			</g>
			<g>
				<path class="st1" d="M-12.89-7.77h-12.04c-0.3,0-0.57-0.16-0.72-0.42l-6.67-11.55c-0.15-0.26-0.15-0.58,0-0.83l6.67-11.55
					c0.15-0.26,0.42-0.42,0.72-0.42h5.84c0.46,0,0.83,0.37,0.83,0.83v1.61c0,0.46-0.37,0.83-0.83,0.83h-3.94
					c-0.3,0-0.57,0.16-0.72,0.42l-4.78,8.27c-0.15,0.26-0.15,0.58,0,0.83l4.78,8.27c0.15,0.26,0.42,0.42,0.72,0.42h10.15
					c0.46,0,0.83,0.37,0.83,0.83v1.61C-12.05-8.14-12.43-7.77-12.89-7.77z"/>
			</g>
			<g>
				<path class="st1" d="M25.17-7.77H13.6c-0.46,0-0.83-0.37-0.83-0.83v-1.61c0-0.46,0.37-0.83,0.83-0.83h10.63l5.26-9.11
					l-5.26-9.11H19.8c-0.46,0-0.83-0.37-0.83-0.83v-1.61c0-0.46,0.37-0.83,0.83-0.83h5.37c0.59,0,1.13,0.31,1.42,0.82l6.2,10.75
					c0.29,0.51,0.29,1.13,0,1.64l-6.2,10.75C26.3-8.08,25.76-7.77,25.17-7.77z"/>
			</g>
		</g>
		<g>
			<path class="st2" d="M0-2.76c-0.45,0-0.86-0.23-1.1-0.6l-2.96-4.62c-0.25-0.39-0.14-0.9,0.25-1.15l0.81-0.52
				c0.39-0.25,0.9-0.14,1.15,0.25L0-6.5l1.86-2.9C2.1-9.79,2.62-9.9,3-9.65l0.81,0.52c0.39,0.25,0.5,0.76,0.25,1.15L1.1-3.36
				C0.86-2.99,0.44-2.76,0-2.76z"/>
		</g>
		<g>
			<g>
				<path class="st2" d="M-2.57-31.2c0-1.63,1.4-2.97,3.03-2.97s2.97,1.34,2.97,2.97c0,1.75-1.34,3.03-2.97,3.03
					S-2.57-29.45-2.57-31.2z"/>
			</g>
		</g>
	</g>
	<g style="clip-path:url(#SVGID_00000179604851463029472030000008274943968370736317_);">
		<g>
			<g>
				<path class="st1" d="M73.97,98.12l-1.4-0.81c-0.4-0.23-0.54-0.74-0.31-1.14l5.31-9.2l-5.26-9.11H61.81l-5.26,9.11l5.31,9.2
					c0.23,0.4,0.09,0.91-0.31,1.14l-1.4,0.81c-0.4,0.23-0.91,0.09-1.14-0.31l-5.79-10.02c-0.29-0.51-0.29-1.13,0-1.64l6.2-10.75
					c0.29-0.51,0.83-0.82,1.42-0.82h12.41c0.59,0,1.13,0.31,1.42,0.82l6.2,10.75c0.29,0.51,0.29,1.13,0,1.64l-5.79,10.02
					C74.88,98.21,74.37,98.35,73.97,98.12z"/>
			</g>
			<g>
				<path class="st1" d="M53.82,110.1H41.78c-0.3,0-0.57-0.16-0.72-0.42l-6.67-11.55c-0.15-0.26-0.15-0.58,0-0.83l6.67-11.55
					c0.15-0.26,0.42-0.42,0.72-0.42h5.84c0.46,0,0.83,0.37,0.83,0.83v1.61c0,0.46-0.37,0.83-0.83,0.83h-3.94
					c-0.3,0-0.57,0.16-0.72,0.42l-4.78,8.27c-0.15,0.26-0.15,0.58,0,0.83l4.78,8.27c0.15,0.26,0.42,0.42,0.72,0.42h10.15
					c0.46,0,0.83,0.37,0.83,0.83v1.61C54.66,109.73,54.28,110.1,53.82,110.1z"/>
			</g>
			<g>
				<path class="st1" d="M91.88,110.1H80.31c-0.46,0-0.83-0.37-0.83-0.83v-1.61c0-0.46,0.37-0.83,0.83-0.83h10.63l5.26-9.11
					l-5.26-9.11h-4.42c-0.46,0-0.83-0.37-0.83-0.83v-1.61c0-0.46,0.37-0.83,0.83-0.83h5.37c0.59,0,1.13,0.31,1.42,0.82l6.2,10.75
					c0.29,0.51,0.29,1.13,0,1.64l-6.2,10.75C93.01,109.79,92.47,110.1,91.88,110.1z"/>
			</g>
		</g>
		<g>
			<path class="st2" d="M66.71,115.11c-0.45,0-0.86-0.23-1.1-0.6l-2.96-4.62c-0.25-0.39-0.14-0.9,0.25-1.15l0.81-0.52
				c0.39-0.25,0.9-0.14,1.15,0.25l1.86,2.9l1.86-2.9c0.25-0.39,0.76-0.5,1.15-0.25l0.81,0.52c0.39,0.25,0.5,0.76,0.25,1.15
				l-2.96,4.62C67.57,114.88,67.15,115.11,66.71,115.11z"/>
		</g>
		<g>
			<g>
				<path class="st2" d="M64.14,86.67c0-1.63,1.4-2.97,3.03-2.97s2.97,1.34,2.97,2.97c0,1.75-1.34,3.03-2.97,3.03
					S64.14,88.42,64.14,86.67z"/>
			</g>
		</g>
	</g>
	<g style="clip-path:url(#SVGID_00000179604851463029472030000008274943968370736317_);">
		<g>
			<g>
				<path class="st1" d="M140.68,77.96l-1.4-0.81c-0.4-0.23-0.54-0.74-0.31-1.14l5.31-9.2l-5.26-9.11h-10.52l-5.26,9.11l5.31,9.2
					c0.23,0.4,0.09,0.91-0.31,1.14l-1.4,0.81c-0.4,0.23-0.91,0.09-1.14-0.31l-5.79-10.02c-0.29-0.51-0.29-1.13,0-1.64l6.2-10.75
					c0.29-0.51,0.83-0.82,1.42-0.82h12.41c0.59,0,1.13,0.31,1.42,0.82l6.2,10.75c0.29,0.51,0.29,1.13,0,1.64l-5.79,10.02
					C141.59,78.06,141.08,78.19,140.68,77.96z"/>
			</g>
			<g>
				<path class="st1" d="M120.53,89.95H108.5c-0.3,0-0.57-0.16-0.72-0.42l-6.67-11.55c-0.15-0.26-0.15-0.58,0-0.83l6.67-11.55
					c0.15-0.26,0.42-0.42,0.72-0.42h5.84c0.46,0,0.83,0.37,0.83,0.83v1.61c0,0.46-0.37,0.83-0.83,0.83h-3.94
					c-0.3,0-0.57,0.16-0.72,0.42l-4.78,8.27c-0.15,0.26-0.15,0.58,0,0.83l4.78,8.27c0.15,0.26,0.42,0.42,0.72,0.42h10.15
					c0.46,0,0.83,0.37,0.83,0.83v1.61C121.37,89.57,121,89.95,120.53,89.95z"/>
			</g>
			<g>
				<path class="st1" d="M158.59,89.95h-11.57c-0.46,0-0.83-0.37-0.83-0.83V87.5c0-0.46,0.37-0.83,0.83-0.83h10.63l5.26-9.11
					l-5.26-9.11h-4.42c-0.46,0-0.83-0.37-0.83-0.83v-1.61c0-0.46,0.37-0.83,0.83-0.83h5.37c0.59,0,1.13,0.31,1.42,0.82l6.2,10.75
					c0.29,0.51,0.29,1.13,0,1.64l-6.2,10.75C159.72,89.63,159.18,89.95,158.59,89.95z"/>
			</g>
		</g>
		<g>
			<path class="st2" d="M133.42,94.96c-0.45,0-0.86-0.23-1.1-0.6l-2.96-4.62c-0.25-0.39-0.14-0.9,0.25-1.15l0.81-0.52
				c0.39-0.25,0.9-0.14,1.15,0.25l1.86,2.9l1.86-2.9c0.25-0.39,0.76-0.5,1.15-0.25l0.81,0.52c0.39,0.25,0.5,0.76,0.25,1.15
				l-2.96,4.62C134.28,94.73,133.86,94.96,133.42,94.96z"/>
		</g>
		<g>
			<g>
				<path class="st2" d="M130.85,66.52c0-1.63,1.4-2.97,3.03-2.97c1.63,0,2.97,1.34,2.97,2.97c0,1.75-1.34,3.03-2.97,3.03
					C132.25,69.55,130.85,68.27,130.85,66.52z"/>
			</g>
		</g>
	</g>
	<g style="clip-path:url(#SVGID_00000179604851463029472030000008274943968370736317_);">
		<g>
			<g>
				<path class="st1" d="M7.26,77.96l-1.4-0.81c-0.4-0.23-0.54-0.74-0.31-1.14l5.31-9.2l-5.26-9.11H-4.9l-5.26,9.11l5.31,9.2
					c0.23,0.4,0.09,0.91-0.31,1.14l-1.4,0.81c-0.4,0.23-0.91,0.09-1.14-0.31l-5.79-10.02c-0.29-0.51-0.29-1.13,0-1.64l6.2-10.75
					c0.29-0.51,0.83-0.82,1.42-0.82H6.56c0.59,0,1.13,0.31,1.42,0.82l6.2,10.75c0.29,0.51,0.29,1.13,0,1.64L8.4,77.66
					C8.17,78.06,7.66,78.19,7.26,77.96z"/>
			</g>
			<g>
				<path class="st1" d="M-12.89,89.95h-12.04c-0.3,0-0.57-0.16-0.72-0.42l-6.67-11.55c-0.15-0.26-0.15-0.58,0-0.83l6.67-11.55
					c0.15-0.26,0.42-0.42,0.72-0.42h5.84c0.46,0,0.83,0.37,0.83,0.83v1.61c0,0.46-0.37,0.83-0.83,0.83h-3.94
					c-0.3,0-0.57,0.16-0.72,0.42l-4.78,8.27c-0.15,0.26-0.15,0.58,0,0.83l4.78,8.27c0.15,0.26,0.42,0.42,0.72,0.42h10.15
					c0.46,0,0.83,0.37,0.83,0.83v1.61C-12.05,89.57-12.43,89.95-12.89,89.95z"/>
			</g>
			<g>
				<path class="st1" d="M25.17,89.95H13.6c-0.46,0-0.83-0.37-0.83-0.83V87.5c0-0.46,0.37-0.83,0.83-0.83h10.63l5.26-9.11
					l-5.26-9.11H19.8c-0.46,0-0.83-0.37-0.83-0.83v-1.61c0-0.46,0.37-0.83,0.83-0.83h5.37c0.59,0,1.13,0.31,1.42,0.82l6.2,10.75
					c0.29,0.51,0.29,1.13,0,1.64l-6.2,10.75C26.3,89.63,25.76,89.95,25.17,89.95z"/>
			</g>
		</g>
		<g>
			<path class="st2" d="M0,94.96c-0.45,0-0.86-0.23-1.1-0.6l-2.96-4.62c-0.25-0.39-0.14-0.9,0.25-1.15l0.81-0.52
				c0.39-0.25,0.9-0.14,1.15,0.25L0,91.21l1.86-2.9c0.25-0.39,0.76-0.5,1.15-0.25l0.81,0.52c0.39,0.25,0.5,0.76,0.25,1.15L1.1,94.35
				C0.86,94.73,0.44,94.96,0,94.96z"/>
		</g>
		<g>
			<g>
				<path class="st2" d="M-2.57,66.52c0-1.63,1.4-2.97,3.03-2.97s2.97,1.34,2.97,2.97c0,1.75-1.34,3.03-2.97,3.03
					S-2.57,68.27-2.57,66.52z"/>
			</g>
		</g>
	</g>
</g>
</svg>
