<?xml version="1.0" encoding="utf-8"?>
<!-- Generator: Adobe Illustrator 23.0.2, SVG Export Plug-In . SVG Version: 6.00 Build 0)  -->
<svg version="1.1" id="Ebene_1" xmlns="http://www.w3.org/2000/svg" xmlns:xlink="http://www.w3.org/1999/xlink" x="0px" y="0px"
	 viewBox="0 0 841.89 595.28" style="enable-background:new 0 0 841.89 595.28;" xml:space="preserve">
<style type="text/css">
	.st0{fill:#A0292A;}
	.st1{fill:#E9C53A;}
	.st2{fill:#D1753A;}
	.st3{fill:#DC9F3F;}
</style>
<path class="st0" d="M406.51,289.94c1.77,0.96,3.15,2.28,4.16,3.95c1.01,1.67,1.52,3.55,1.52,5.63c0,2.1-0.51,4-1.52,5.69
	c-1.01,1.7-2.4,3.03-4.16,4.01c-1.77,0.98-3.74,1.47-5.93,1.47s-4.16-0.48-5.93-1.45c-1.77-0.97-3.15-2.31-4.16-4.01
	c-1.01-1.7-1.52-3.61-1.52-5.71c0-2.08,0.51-3.96,1.52-5.63c1.01-1.67,2.4-2.99,4.16-3.95s3.74-1.44,5.93-1.44
	S404.75,288.98,406.51,289.94z M397.7,294.07c-0.91,0.55-1.63,1.31-2.16,2.28c-0.53,0.97-0.8,2.04-0.8,3.2
	c0,1.18,0.27,2.26,0.81,3.23c0.54,0.97,1.26,1.74,2.16,2.3c0.9,0.56,1.88,0.84,2.94,0.84c1.06,0,2.04-0.28,2.92-0.84
	c0.89-0.56,1.59-1.33,2.1-2.3c0.51-0.97,0.77-2.05,0.77-3.23c0-1.16-0.26-2.23-0.77-3.2c-0.51-0.97-1.21-1.73-2.1-2.28
	c-0.89-0.55-1.86-0.83-2.92-0.83C399.59,293.25,398.6,293.52,397.7,294.07z"/>
<path class="st0" d="M426.11,293.64c-1.3-0.43-2.38-0.64-3.26-0.64c-0.69,0-1.24,0.13-1.64,0.38c-0.4,0.26-0.6,0.63-0.6,1.12
	c0,0.47,0.17,0.86,0.52,1.18c0.35,0.32,0.78,0.57,1.29,0.76c0.51,0.19,1.26,0.44,2.27,0.75c1.49,0.43,2.72,0.86,3.69,1.29
	c0.97,0.43,1.8,1.09,2.5,1.97c0.69,0.89,1.04,2.05,1.04,3.48c0,1.43-0.38,2.65-1.13,3.66c-0.76,1.01-1.79,1.77-3.11,2.28
	c-1.32,0.51-2.78,0.77-4.39,0.77c-1.78,0-3.55-0.31-5.31-0.93c-0.33-0.12-0.65-0.24-0.96-0.37c-2.12-0.9-3-3.44-1.97-5.51l0.53-1.06
	c1.08,0.96,2.36,1.75,3.84,2.36c1.48,0.61,2.79,0.92,3.93,0.92c0.84,0,1.5-0.15,1.97-0.46c0.48-0.31,0.72-0.75,0.72-1.34
	c0-0.49-0.23-0.97-0.61-1.29c-0.35-0.3-0.77-0.54-1.28-0.72c-0.54-0.19-1.3-0.42-2.28-0.69c-1.47-0.41-2.68-0.82-3.64-1.24
	c-0.96-0.42-1.78-1.05-2.47-1.9c-0.68-0.85-1.03-1.97-1.03-3.38c0-1.33,0.35-2.49,1.06-3.49c0.7-1,1.7-1.77,3-2.31
	c1.3-0.54,2.8-0.81,4.52-0.81c1.55,0,3.08,0.22,4.59,0.66c0.03,0.01,0.06,0.02,0.09,0.03c2.18,0.65,3.23,3.13,2.26,5.18l-0.48,1.02
	C428.63,294.62,427.41,294.07,426.11,293.64z"/>
<path class="st0" d="M438.36,288.84h2v21.46h-5.6v-17.86C434.76,290.45,436.37,288.84,438.36,288.84z"/>
<path class="st0" d="M455.66,293.64c-1.3-0.43-2.38-0.64-3.26-0.64c-0.69,0-1.24,0.13-1.64,0.38c-0.4,0.26-0.6,0.63-0.6,1.12
	c0,0.47,0.17,0.86,0.52,1.18c0.35,0.32,0.78,0.57,1.29,0.76c0.51,0.19,1.26,0.44,2.27,0.75c1.49,0.43,2.72,0.86,3.69,1.29
	c0.97,0.43,1.8,1.09,2.5,1.97c0.69,0.89,1.04,2.05,1.04,3.48c0,1.43-0.38,2.65-1.13,3.66c-0.76,1.01-1.79,1.77-3.11,2.28
	c-1.32,0.51-2.78,0.77-4.39,0.77c-1.78,0-3.55-0.31-5.31-0.93c-0.37-0.13-0.73-0.27-1.08-0.42c-2.05-0.88-2.9-3.34-1.91-5.34
	l0.58-1.18c1.08,0.96,2.36,1.75,3.84,2.36c1.48,0.61,2.79,0.92,3.93,0.92c0.84,0,1.5-0.15,1.97-0.46c0.48-0.31,0.72-0.75,0.72-1.34
	c0-0.49-0.23-0.97-0.61-1.29c-0.35-0.3-0.77-0.54-1.28-0.72c-0.54-0.19-1.3-0.42-2.28-0.69c-1.47-0.41-2.68-0.82-3.64-1.24
	c-0.96-0.42-1.78-1.05-2.47-1.9c-0.68-0.85-1.03-1.97-1.03-3.38c0-1.33,0.35-2.49,1.06-3.49c0.7-1,1.7-1.77,3-2.31
	c1.3-0.54,2.8-0.81,4.52-0.81c1.55,0,3.08,0.22,4.59,0.66l0,0c2.22,0.65,3.33,3.13,2.35,5.22l-0.48,1.01
	C458.17,294.62,456.95,294.07,455.66,293.64z"/>
<path class="st0" d="M467.98,288.84h2.42l6.21,12.55l4.8-9.75c0.85-1.72,2.59-2.8,4.51-2.8h2.97v21.46h-4.96l-0.03-13.59
	l-5.48,11.45h-3.61l-5.51-11.45v13.59h-4.99v-17.79C464.31,290.48,465.95,288.84,467.98,288.84z"/>
<polygon class="st1" points="373.77,249.05 384.38,249.05 389.69,258.25 384.38,267.44 373.77,267.44 368.46,258.25 "/>
<polygon class="st2" points="356.19,298.9 366.81,298.9 372.12,308.1 366.81,317.29 356.19,317.29 350.89,308.1 "/>
<polygon class="st3" points="356.19,259.02 366.81,259.02 372.12,268.22 366.81,277.41 356.19,277.41 350.89,268.22 "/>
<polygon class="st2" points="338.62,288.93 349.24,288.93 354.54,298.13 349.24,307.32 338.62,307.32 333.31,298.13 "/>
<polygon class="st3" points="338.62,268.99 349.24,268.99 354.54,278.19 349.24,287.38 338.62,287.38 333.31,278.19 "/>
<polygon class="st0" points="321.05,318.84 331.66,318.84 336.97,328.04 331.66,337.23 321.05,337.23 315.74,328.04 "/>
<polygon class="st2" points="321.05,298.9 331.66,298.9 336.97,308.1 331.66,317.29 321.05,317.29 315.74,308.1 "/>
<polygon class="st3" points="321.05,278.96 331.66,278.96 336.97,288.16 331.66,297.35 321.05,297.35 315.74,288.16 "/>
<polygon class="st3" points="321.05,259.02 331.66,259.02 336.97,268.22 331.66,277.41 321.05,277.41 315.74,268.22 "/>
<polygon class="st0" points="303.48,328.81 314.09,328.81 319.4,338.01 314.09,347.2 303.48,347.2 298.17,338.01 "/>
<polygon class="st0" points="303.48,308.87 314.09,308.87 319.4,318.07 314.09,327.26 303.48,327.26 298.17,318.07 "/>
<polygon class="st2" points="303.48,288.93 314.09,288.93 319.4,298.13 314.09,307.32 303.48,307.32 298.17,298.13 "/>
<polygon class="st0" points="285.9,318.84 296.52,318.84 301.83,328.04 296.52,337.23 285.9,337.23 280.59,328.04 "/>
<polygon class="st2" points="285.9,298.9 296.52,298.9 301.83,308.1 296.52,317.29 285.9,317.29 280.59,308.1 "/>
<polygon class="st3" points="285.9,278.96 296.52,278.96 301.83,288.16 296.52,297.35 285.9,297.35 280.59,288.16 "/>
<polygon class="st0" points="268.33,328.81 278.95,328.81 284.25,338.01 278.95,347.2 268.33,347.2 263.02,338.01 "/>
<polygon class="st1" points="268.33,249.05 278.95,249.05 284.25,258.25 278.95,267.44 268.33,267.44 263.02,258.25 "/>
</svg>
