<?xml version="1.0" encoding="utf-8"?>
<!-- Generator: Adobe Illustrator 27.1.0, SVG Export Plug-In . SVG Version: 6.00 Build 0)  -->
<svg version="1.1" id="Ebene_1" xmlns="http://www.w3.org/2000/svg" xmlns:xlink="http://www.w3.org/1999/xlink" x="0px" y="0px"
	 viewBox="0 0 8192 3559.8" style="enable-background:new 0 0 8192 3559.8;" xml:space="preserve">
<style type="text/css">
	.st0{fill:#A0292A;}
	.st1{fill:#E9C53C;}
	.st2{fill:#D1753B;}
	.st3{fill:#DC9F3F;}
</style>
<path class="st0" d="M5204.2,1483c64.2,34.8,114.2,82.7,150.9,143.3c36.6,60.6,55.2,128.8,55.2,204.2c0,76.2-18.4,145-55.2,206.4
	c-36.6,61.7-87,109.9-150.9,145.4c-64.2,35.6-135.6,53.3-215.1,53.3s-150.9-17.4-215.1-52.6c-64.2-35.2-114.2-83.8-150.9-145.4
	c-36.6-61.7-55.2-130.9-55.2-207.1c0-75.4,18.4-143.5,55.2-204.2c36.6-60.6,86.9-108.3,150.9-143.3c63.8-34.8,135.5-52.2,215.1-52.2
	C5068.6,1430.8,5140.2,1448.2,5204.2,1483z M4884.6,1632.8c-33,19.9-59.1,47.5-78.3,82.7c-19.2,35.2-29,74-29,116.1
	c0,42.8,9.8,82,29.4,117.1c19.6,35.2,45.7,63.1,78.3,83.4c31.9,20.1,68.9,30.7,106.6,30.5c38.4,0,74-10.2,105.9-30.5
	c32.3-20.3,57.7-48.2,76.2-83.4c18.5-35.2,27.9-74.3,27.9-117.1c0-42.1-9.4-80.9-27.9-116.1s-43.9-62.7-76.2-82.7
	c-31.7-19.9-68.4-30.3-105.9-30.1C4953.2,1603.1,4917.3,1612.9,4884.6,1632.8z"/>
<path class="st0" d="M5915.1,1617.2c-47.2-15.6-86.3-23.2-118.2-23.2c-25,0-45,4.7-59.5,13.8c-14.5,9.4-21.8,22.8-21.8,40.6
	c0,17,6.2,31.1,18.9,42.8c12.7,11.7,28.3,20.7,46.8,27.6c18.5,6.9,45.7,16,82.3,27.2c54,15.6,98.7,31.2,133.8,46.8
	c35.2,15.6,65.3,39.5,90.7,71.4c25,32.3,37.7,74.3,37.7,126.2c0,51.9-13.8,96.1-41,132.7c-27.6,36.6-65,64.2-112.8,82.7
	c-47.8,18.5-100.8,27.9-159.2,27.9c-64.6,0-128.8-11.2-192.6-33.7c-12-4.4-23.6-8.7-34.8-13.4c-76.9-32.6-108.8-124.8-71.4-199.8
	l19.2-38.4c39.1,34.8,85.6,63.4,139.3,85.6c53.7,22.1,101.2,33.4,142.5,33.4c30.5,0,54.4-5.4,71.4-16.7
	c17.4-11.2,26.1-27.2,26.1-48.6c0-17.8-8.3-35.2-22.1-46.8c-12.7-10.9-27.9-19.6-46.4-26.1c-19.6-6.9-47.1-15.2-82.7-25
	c-53.3-14.9-97.2-29.7-132-45c-34.8-15.2-64.6-38.1-89.6-68.9c-24.7-30.8-37.4-71.4-37.4-122.6c0-48.2,12.7-90.3,38.4-126.6
	c25.4-36.3,61.7-64.2,108.8-83.8c47.2-19.6,101.5-29.4,163.9-29.4c56.3,0,112.4,8.1,166.5,23.9l3.3,1.1
	c79.1,23.6,117.1,113.5,82,187.9l-17.4,37C6006.5,1652.8,5962.2,1632.8,5915.1,1617.2z"/>
<path class="st0" d="M6359.4,1443.1h72.5v778.3h-203.1v-647.8c0-72.1,58.3-130.5,130.4-130.6
	C6359.2,1443.1,6359.3,1443.1,6359.4,1443.1z"/>
<path class="st0" d="M6986.8,1617.2c-47.2-15.6-86.3-23.2-118.2-23.2c-25,0-45,4.7-59.5,13.8c-14.5,9.4-21.8,22.8-21.8,40.6
	c0,17,6.2,31.1,18.9,42.8c12.7,11.7,28.3,20.7,46.8,27.6s45.7,16,82.3,27.2c54,15.6,98.6,31.2,133.8,46.8
	c35.2,15.6,65.3,39.5,90.7,71.4c25,32.3,37.7,74.3,37.7,126.2c0,51.9-13.8,96.1-41,132.7c-27.6,36.6-65,64.2-112.8,82.7
	c-47.8,18.5-100.8,27.9-159.2,27.9c-64.6,0-128.8-11.2-192.6-33.7c-13.4-4.7-26.5-9.8-39.1-15.2c-74.3-31.9-105.2-121.1-69.3-193.7
	l21-42.8c39.1,34.8,85.6,63.4,139.3,85.6c53.7,22.1,101.2,33.4,142.5,33.4c30.5,0,54.4-5.4,71.4-16.7c17.4-11.2,26.1-27.2,26.1-48.6
	c0-17.8-8.3-35.2-22.1-46.8c-12.7-10.9-27.9-19.6-46.4-26.1c-19.6-6.9-47.1-15.2-82.7-25c-53.3-14.9-97.2-29.7-132-45
	c-34.8-15.2-64.6-38.1-89.6-68.9c-24.7-30.8-37.4-71.4-37.4-122.6c0-48.2,12.7-90.3,38.4-126.6c25.4-36.3,61.7-64.2,108.8-83.8
	c47.2-19.6,101.6-29.4,163.9-29.4c56.3,0,112.4,8.1,166.5,23.9l0,0c80.5,23.6,120.8,113.5,85.2,189.3l-17.4,36.6
	C7077.8,1652.8,7033.6,1632.8,6986.8,1617.2z"/>
<path class="st0" d="M7433.6,1443.1h87.8l225.2,455.2l174.1-353.6c30.7-62.3,94.1-101.7,163.6-101.6H8192v778.3h-179.9l-1.1-492.9
	l-198.8,415.3h-130.9l-199.8-415.3v492.9h-181v-645.2c-0.1-73.4,59.4-133,132.8-133.1C7433.4,1443.1,7433.5,1443.1,7433.6,1443.1z"
	/>
<polygon class="st1" points="4016.8,0 4401.6,0 4594.2,333.7 4401.6,667 4016.8,667 3824.2,333.7 "/>
<polygon class="st2" points="3379.1,1808 3764.3,1808 3956.9,2141.7 3764.3,2475 3379.1,2475 3186.9,2141.7 "/>
<polygon class="st3" points="3379.1,361.6 3764.3,361.6 3956.9,695.3 3764.3,1028.6 3379.1,1028.6 3186.9,695.3 "/>
<polygon class="st2" points="2741.9,1446.4 3127.1,1446.4 3319.3,1780.1 3127.1,2113.4 2741.9,2113.4 2549.3,1780.1 "/>
<polygon class="st3" points="2741.9,723.2 3127.1,723.2 3319.3,1056.9 3127.1,1390.2 2741.9,1390.2 2549.3,1056.9 "/>
<polygon class="st0" points="2104.7,2531.2 2489.5,2531.2 2682.1,2864.9 2489.5,3198.2 2104.7,3198.2 1912.1,2864.9 "/>
<polygon class="st2" points="2104.7,1808 2489.5,1808 2682.1,2141.7 2489.5,2475 2104.7,2475 1912.1,2141.7 "/>
<polygon class="st3" points="2104.7,1084.8 2489.5,1084.8 2682.1,1418.5 2489.5,1751.8 2104.7,1751.8 1912.1,1418.5 "/>
<polygon class="st3" points="2104.7,361.6 2489.5,361.6 2682.1,695.3 2489.5,1028.6 2104.7,1028.6 1912.1,695.3 "/>
<polygon class="st0" points="1467.4,2892.8 1852.2,2892.8 2044.8,3226.5 1852.2,3559.8 1467.4,3559.8 1274.8,3226.5 "/>
<polygon class="st0" points="1467.4,2169.6 1852.2,2169.6 2044.8,2503.3 1852.2,2836.6 1467.4,2836.6 1274.8,2503.3 "/>
<polygon class="st2" points="1467.4,1446.4 1852.2,1446.4 2044.8,1780.1 1852.2,2113.4 1467.4,2113.4 1274.8,1780.1 "/>
<polygon class="st0" points="829.8,2531.2 1215,2531.2 1407.6,2864.9 1215,3198.2 829.8,3198.2 637.2,2864.9 "/>
<polygon class="st2" points="829.8,1808 1215,1808 1407.6,2141.7 1215,2475 829.8,2475 637.2,2141.7 "/>
<polygon class="st3" points="829.8,1084.8 1215,1084.8 1407.6,1418.5 1215,1751.8 829.8,1751.8 637.2,1418.5 "/>
<polygon class="st0" points="192.6,2892.8 577.8,2892.8 770,3226.5 577.8,3559.8 192.6,3559.8 0,3226.5 "/>
<polygon class="st1" points="192.6,0 577.8,0 770,333.7 577.8,667 192.6,667 0,333.7 "/>
</svg>
