<?xml version="1.0" encoding="utf-8"?>
<!-- Generator: Adobe Illustrator 27.7.0, SVG Export Plug-In . SVG Version: 6.00 Build 0)  -->
<svg version="1.1" id="Ebene_1" xmlns="http://www.w3.org/2000/svg" xmlns:xlink="http://www.w3.org/1999/xlink" x="0px" y="0px"
	 viewBox="0 0 1272.5 1203.06" style="enable-background:new 0 0 1272.5 1203.06;" xml:space="preserve">
<style type="text/css">
	.st0{fill:none;}
	.st1{display:none;fill:#49535B;}
	.st2{fill:#D1D6DC;}
	.st3{fill:url(#SVGID_1_);}
</style>
<pattern  x="212.56" y="266.8" width="424.22" height="481.37" patternUnits="userSpaceOnUse" id="OSISM-Pattern_x5F_v4grey" viewBox="128.13 -592.36 424.22 481.37" style="overflow:visible;">
	<g>
		<rect x="128.13" y="-592.36" class="st0" width="424.22" height="481.37"/>
		<g>
			<g>
				<polygon class="st1" points="404.3,-462.71 276.23,-462.71 212.14,-351.67 276.23,-240.75 404.3,-240.75 468.39,-351.67 				"/>
				<path class="st2" d="M313.15-240.75h-36.91l-18.48-31.96l10.27-5.94l15.05,26.03h30.06V-240.75z M422.77-272.71l-10.27-5.94
					l-15.04,26.03h-30.07v11.87h36.92L422.77-272.71z M468.39-351.67l-18.46-31.97l-10.27,5.93l15.03,26.04l-15.05,26.04l10.27,5.94
					L468.39-351.67z M422.76-430.73l-18.46-31.98h-36.92v11.87h30.07l15.03,26.05L422.76-430.73z M283.09-450.85h30.06v-11.87
					h-36.91l-18.46,31.98l10.28,5.93L283.09-450.85z M240.89-325.64l-15.05-26.04l15.03-26.04l-10.27-5.93l-18.46,31.97l18.48,31.97
					L240.89-325.64z"/>
			</g>
			<g>
				<polygon class="st1" points="404.3,-221.97 276.23,-221.97 212.14,-110.93 276.23,0 404.3,0 468.39,-110.93 				"/>
				<path class="st2" d="M313.15,0h-36.91l-18.48-31.96l10.27-5.94l15.05,26.03h30.06V0z M422.77-31.96l-10.27-5.94l-15.04,26.03
					h-30.07V0h36.92L422.77-31.96z M468.39-110.93l-18.46-31.97l-10.27,5.93l15.03,26.04l-15.05,26.04l10.27,5.94L468.39-110.93z
					 M422.76-189.98l-18.46-31.98h-36.92v11.87h30.07l15.03,26.05L422.76-189.98z M283.09-210.1h30.06v-11.87h-36.91l-18.46,31.98
					l10.28,5.93L283.09-210.1z M240.89-84.89l-15.05-26.04l15.03-26.04l-10.27-5.93l-18.46,31.97l18.48,31.97L240.89-84.89z"/>
			</g>
			<g>
				<polygon class="st1" points="616.38,-342.37 488.31,-342.37 424.22,-231.33 488.31,-120.4 616.38,-120.4 680.47,-231.33 				"/>
				<path class="st2" d="M525.23-120.4h-36.91l-18.48-31.96l10.27-5.94l15.05,26.03h30.06V-120.4z M634.85-152.36l-10.27-5.94
					l-15.04,26.03h-30.07v11.87h36.92L634.85-152.36z M680.47-231.33l-18.46-31.97l-10.27,5.93l15.03,26.04l-15.05,26.04l10.27,5.94
					L680.47-231.33z M634.84-310.39l-18.46-31.98h-36.92v11.87h30.07l15.03,26.05L634.84-310.39z M495.17-330.5h30.06v-11.87h-36.91
					l-18.46,31.98l10.28,5.93L495.17-330.5z M452.97-205.29l-15.05-26.04l15.03-26.04l-10.27-5.93l-18.46,31.97l18.48,31.97
					L452.97-205.29z"/>
			</g>
			<g>
				<polygon class="st1" points="616.38,-583.06 488.31,-583.06 424.22,-472.02 488.31,-361.09 616.38,-361.09 680.47,-472.02 				
					"/>
				<path class="st2" d="M525.23-361.09h-36.91l-18.48-31.96l10.27-5.94l15.05,26.03h30.06V-361.09z M634.85-393.05l-10.27-5.94
					l-15.04,26.03h-30.07v11.87h36.92L634.85-393.05z M680.47-472.02l-18.46-31.97l-10.27,5.93l15.03,26.04l-15.05,26.04l10.27,5.94
					L680.47-472.02z M634.84-551.07l-18.46-31.98h-36.92v11.87h30.07l15.03,26.05L634.84-551.07z M495.17-571.19h30.06v-11.87
					h-36.91l-18.46,31.98l10.28,5.93L495.17-571.19z M452.97-445.98l-15.05-26.04l15.03-26.04l-10.27-5.93l-18.46,31.97l18.48,31.97
					L452.97-445.98z"/>
			</g>
		</g>
		<g>
			<g>
				<polygon class="st1" points="192.16,-342.37 64.1,-342.37 0,-231.33 64.1,-120.4 192.16,-120.4 256.26,-231.33 				"/>
				<path class="st2" d="M101.01-120.4H64.1l-18.48-31.96l10.27-5.94l15.05,26.03h30.06V-120.4z M210.63-152.36l-10.27-5.94
					l-15.04,26.03h-30.07v11.87h36.92L210.63-152.36z M256.26-231.33L237.8-263.3l-10.27,5.93l15.03,26.04l-15.05,26.04l10.27,5.94
					L256.26-231.33z M210.62-310.39l-18.46-31.98h-36.92v11.87h30.07l15.03,26.05L210.62-310.39z M70.95-330.5h30.06v-11.87H64.1
					l-18.46,31.98l10.28,5.93L70.95-330.5z M28.75-205.29L13.7-231.33l15.03-26.04l-10.27-5.93L0-231.33l18.48,31.97L28.75-205.29z"
					/>
			</g>
			<g>
				<polygon class="st1" points="192.16,-583.06 64.1,-583.06 0,-472.02 64.1,-361.09 192.16,-361.09 256.25,-472.02 				"/>
				<path class="st2" d="M101.01-361.09H64.1l-18.48-31.96l10.27-5.94l15.05,26.03h30.06V-361.09z M210.63-393.05l-10.27-5.94
					l-15.04,26.03h-30.07v11.87h36.92L210.63-393.05z M256.25-472.02l-18.46-31.97l-10.27,5.93l15.03,26.04l-15.05,26.04l10.27,5.94
					L256.25-472.02z M210.62-551.07l-18.46-31.98h-36.92v11.87h30.07l15.03,26.05L210.62-551.07z M70.95-571.19h30.06v-11.87H64.1
					l-18.46,31.98l10.28,5.93L70.95-571.19z M28.75-445.98L13.7-472.02l15.03-26.04l-10.27-5.93L0-472.02l18.48,31.97L28.75-445.98z
					"/>
			</g>
		</g>
		<g>
			<g>
				<polygon class="st1" points="404.3,-703.34 276.23,-703.34 212.14,-592.3 276.23,-481.37 404.3,-481.37 468.39,-592.3 				"/>
				<path class="st2" d="M313.15-481.37h-36.91l-18.48-31.96l10.27-5.94l15.05,26.03h30.06V-481.37z M422.77-513.33l-10.27-5.94
					l-15.04,26.03h-30.07v11.87h36.92L422.77-513.33z M468.39-592.3l-18.46-31.97l-10.27,5.93l15.03,26.04l-15.05,26.04l10.27,5.94
					L468.39-592.3z M422.76-671.36l-18.46-31.98h-36.92v11.87h30.07l15.03,26.05L422.76-671.36z M283.09-691.47h30.06v-11.87h-36.91
					l-18.46,31.98l10.28,5.93L283.09-691.47z M240.89-566.26l-15.05-26.04l15.03-26.04l-10.27-5.93l-18.46,31.97l18.48,31.97
					L240.89-566.26z"/>
			</g>
		</g>
	</g>
</pattern>
<pattern  id="SVGID_1_" xlink:href="#OSISM-Pattern_x5F_v4grey" patternTransform="matrix(1 0 0 1 -451.8142 205.2766)">
</pattern>
<polygon class="st3" points="0,1203.06 1270.31,1203.06 1272.5,0 2.19,0 "/>
</svg>
